<svg xmlns="http://www.w3.org/2000/svg" version="1.0" width="2000mm" height="2000mm" viewBox="0 0 2000 2000"><path fill="none" stroke="DarkBlue" stroke-width="0.1" d="M 0,333.33 C 80 327.52 194.85 369.19 154.66 302.52 C 114.47 235.86 274.47 235.86 234.66 302.52 C 194.85 369.19 320 324 400 333.33 C 480 342.66 623.92 289.21 570.49 355.88 C 517.05 422.54 677.05 422.54 650.49 355.88 C 623.92 289.21 720 323.35 800 333.33 C 880 343.32 1012.52 359.45 969.81 292.78 C 927.1 226.12 1087.1 226.12 1049.81 292.78 C 1012.52 359.45 1120 333.59 1200 333.33 C 1280 333.07 1395.61 291.86 1364.83 358.53 C 1334.05 425.19 1494.05 425.19 1444.83 358.53 C 1395.61 291.86 1520 343.4 1600 333.33 C 1680 323.27 1811.81 308.31 1771.9 374.98 C 1731.99 441.64 1891.99 441.64 1851.9 374.98 C 1811.81 308.31 1920 324.51 2000 333.33 M 0,666.67 C 80 666.08 184.47 632.2 155.62 698.87 C 126.78 765.53 286.78 765.53 235.62 698.87 C 184.47 632.2 320 666.27 400 666.67 C 480 667.06 584.91 642.26 555.33 708.92 C 525.75 775.59 685.75 775.59 635.33 708.92 C 584.91 642.26 720 674.52 800 666.67 C 880 658.81 1005.65 699.08 968.84 632.41 C 932.04 565.75 1092.04 565.75 1048.84 632.41 C 1005.65 699.08 1120 655 1200 666.67 C 1280 678.33 1395.06 703.79 1362.87 637.12 C 1330.68 570.45 1490.68 570.45 1442.87 637.12 C 1395.06 703.79 1520 661.29 1600 666.67 C 1680 672.04 1820.35 622.44 1770.87 689.1 C 1721.39 755.77 1881.39 755.77 1850.87 689.1 C 1820.35 622.44 1920 665.53 2000 666.67 M 0,1000 C 80 997.74 214.12 1042.8 174.31 976.13 C 134.5 909.46 294.5 909.46 254.31 976.13 C 214.12 1042.8 320 996.64 400 1000 C 480 1003.36 605.99 954.37 568.19 1021.03 C 530.39 1087.7 690.39 1087.7 648.19 1021.03 C 605.99 954.37 720 993.48 800 1000 C 880 1006.52 997.69 956.91 955.16 1023.57 C 912.63 1090.24 1072.63 1090.24 1035.16 1023.57 C 997.69 956.91 1120 1002.25 1200 1000 C 1280 997.75 1396.97 973.92 1368.89 1040.59 C 1340.81 1107.25 1500.81 1107.25 1448.89 1040.59 C 1396.97 973.92 1520 1004.88 1600 1000 C 1680 995.12 1782.62 1022.79 1744.95 956.12 C 1707.27 889.45 1867.27 889.45 1824.95 956.12 C 1782.62 1022.79 1920 992.3 2000 1000 M 0,1333.33 C 80 1335.32 209.61 1369.1 166.58 1302.43 C 123.54 1235.77 283.54 1235.77 246.58 1302.43 C 209.61 1369.1 320 1320.54 400 1333.33 C 480 1346.13 595.31 1366.07 571.22 1299.4 C 547.14 1232.74 707.14 1232.74 651.22 1299.4 C 595.31 1366.07 720 1324.2 800 1333.33 C 880 1342.47 989.01 1366.72 964.44 1300.05 C 939.86 1233.38 1099.86 1233.38 1044.44 1300.05 C 989.01 1366.72 1120 1322.1 1200 1333.33 C 1280 1344.57 1402.3 1297.31 1370.78 1363.98 C 1339.26 1430.65 1499.26 1430.65 1450.78 1363.98 C 1402.3 1297.31 1520 1327.89 1600 1333.33 C 1680 1338.78 1789.86 1377.82 1746.09 1311.15 C 1702.31 1244.49 1862.31 1244.49 1826.09 1311.15 C 1789.86 1377.82 1920 1336.26 2000 1333.33 M 0,1666.67 C 80 1669.78 225.88 1634.63 170.05 1701.3 C 114.22 1767.97 274.22 1767.97 250.05 1701.3 C 225.88 1634.63 320 1664.54 400 1666.67 C 480 1668.79 603.22 1642.89 552.01 1709.55 C 500.8 1776.22 660.8 1776.22 632.01 1709.55 C 603.22 1642.89 720 1658.49 800 1666.67 C 880 1674.84 1000.57 1710.6 956.88 1643.94 C 913.18 1577.27 1073.18 1577.27 1036.88 1643.94 C 1000.57 1710.6 1120 1657.55 1200 1666.67 C 1280 1675.78 1374.95 1640.82 1348.28 1707.49 C 1321.6 1774.15 1481.6 1774.15 1428.28 1707.49 C 1374.95 1640.82 1520 1654.41 1600 1666.67 C 1680 1678.92 1781.69 1633.48 1755.71 1700.14 C 1729.73 1766.81 1889.73 1766.81 1835.71 1700.14 C 1781.69 1633.48 1920 1669.27 2000 1666.67 "></path><path fill="none" stroke="DarkRed" stroke-width="0.1" d="M 400,0 C 411.36 66.67 354.85 163.92 434.85 142.18 C 514.85 120.44 514.85 253.78 434.85 208.85 C 354.85 163.92 392.73 266.67 400 333.33 C 407.27 400 453.8 517.62 373.8 471.51 C 293.8 425.39 293.8 558.72 373.8 538.17 C 453.8 517.62 402.98 600 400 666.67 C 397.02 733.33 345.74 831.02 425.74 789.26 C 505.74 747.51 505.74 880.84 425.74 855.93 C 345.74 831.02 408.69 933.33 400 1000 C 391.31 1066.67 445.18 1159.57 365.18 1120.38 C 285.18 1081.2 285.18 1214.53 365.18 1187.05 C 445.18 1159.57 409.1 1266.67 400 1333.33 C 390.9 1400 367.66 1493.36 447.66 1469.67 C 527.66 1445.99 527.66 1579.32 447.66 1536.34 C 367.66 1493.36 388.59 1600 400 1666.67 C 411.41 1733.33 347.58 1835.32 427.58 1793.59 C 507.58 1751.87 507.58 1885.2 427.58 1860.26 C 347.58 1835.32 396.98 1933.33 400 2000 M 800,0 C 791.92 66.67 840.88 169.2 760.88 144.13 C 680.88 119.06 680.88 252.39 760.88 210.8 C 840.88 169.2 800.15 266.67 800 333.33 C 799.85 400 772.1 491.74 852.1 467.58 C 932.1 443.42 932.1 576.75 852.1 534.25 C 772.1 491.74 797.01 600 800 666.67 C 802.99 733.33 769 818.91 849 796.83 C 929 774.75 929 908.08 849 863.5 C 769 818.91 792.6 933.33 800 1000 C 807.4 1066.67 773.64 1177.09 853.64 1142.03 C 933.64 1106.97 933.64 1240.31 853.64 1208.7 C 773.64 1177.09 808.23 1266.67 800 1333.33 C 791.77 1400 762.53 1519.29 842.53 1474.59 C 922.53 1429.89 922.53 1563.22 842.53 1541.26 C 762.53 1519.29 785.06 1600 800 1666.67 C 814.94 1733.33 832.33 1836.12 752.33 1802.14 C 672.33 1768.17 672.33 1901.5 752.33 1868.81 C 832.33 1836.12 803.84 1933.33 800 2000 M 1200,0 C 1199.51 66.67 1146.73 151.08 1226.73 129.6 C 1306.73 108.12 1306.73 241.45 1226.73 196.27 C 1146.73 151.08 1184.73 266.67 1200 333.33 C 1215.27 400 1160.92 491.06 1240.92 459.3 C 1320.92 427.53 1320.92 560.86 1240.92 525.96 C 1160.92 491.06 1202.91 600 1200 666.67 C 1197.09 733.33 1145.61 816.97 1225.61 793.06 C 1305.61 769.16 1305.61 902.49 1225.61 859.73 C 1145.61 816.97 1210.1 933.33 1200 1000 C 1189.9 1066.67 1254.03 1149.95 1174.03 1128.47 C 1094.03 1107 1094.03 1240.33 1174.03 1195.14 C 1254.03 1149.95 1185.2 1266.67 1200 1333.33 C 1214.8 1400 1249.65 1480.81 1169.65 1456.21 C 1089.65 1431.6 1089.65 1564.94 1169.65 1522.87 C 1249.65 1480.81 1191 1600 1200 1666.67 C 1209 1733.33 1156.68 1833.42 1236.68 1790.68 C 1316.68 1747.93 1316.68 1881.27 1236.68 1857.34 C 1156.68 1833.42 1192.85 1933.33 1200 2000 M 1600,0 C 1587.92 66.67 1556.88 165.43 1636.88 123.62 C 1716.88 81.81 1716.88 215.15 1636.88 190.29 C 1556.88 165.43 1594.66 266.67 1600 333.33 C 1605.34 400 1545.67 517.47 1625.67 472.32 C 1705.67 427.16 1705.67 560.5 1625.67 538.98 C 1545.67 517.47 1614.29 600 1600 666.67 C 1585.71 733.33 1626.5 845.31 1546.5 800.75 C 1466.5 756.18 1466.5 889.51 1546.5 867.41 C 1626.5 845.31 1595.37 933.33 1600 1000 C 1604.63 1066.67 1634.04 1163.42 1554.04 1128.44 C 1474.04 1093.46 1474.04 1226.8 1554.04 1195.11 C 1634.04 1163.42 1584.93 1266.67 1600 1333.33 C 1615.07 1400 1565.47 1488.05 1645.47 1458.16 C 1725.47 1428.28 1725.47 1561.61 1645.47 1524.83 C 1565.47 1488.05 1605.92 1600 1600 1666.67 C 1594.08 1733.33 1631.74 1823.06 1551.74 1787.97 C 1471.74 1752.88 1471.74 1886.21 1551.74 1854.64 C 1631.74 1823.06 1615.84 1933.33 1600 2000 "></path><path fill="none" stroke="Black" stroke-width="0.1" d="M 2 0 L 1998 0 A 2 2 0 0 1 2000 2 L 2000 1998 A 2 2 0 0 1 1998 2000 L 2 2000 A 2 2 0 0 1 0 1998 L 0 2 A 2 2 0 0 1 2 0 "></path></svg>