<?xml version="1.0" encoding="UTF-8" standalone="no"?>
<!-- Created with Inkscape (http://www.inkscape.org/) -->

<svg
   version="1.1"
   id="svg1"
   width="2899.7051"
   height="2999.6992"
   viewBox="0 0 2899.7051 2999.6992"
   xml:space="preserve"
   xmlns="http://www.w3.org/2000/svg"
   xmlns:svg="http://www.w3.org/2000/svg"><defs
     id="defs1" /><g
     id="g109"
     transform="translate(-0.1484375,-0.15234375)"><path
       id="path165"
       style="opacity:1;fill:#1b10ef;fill-opacity:0.543147;stroke:none;stroke-width:1.03391;stroke-dasharray:none"
       d="m 2707.9512,2489.0977 c -27.4168,-0.2173 -48.7578,2.586 -58.3223,11.6425 -4.7823,4.5283 -6.6333,10.6076 -4.8516,18.6973 1.7817,8.0897 7.2093,18.1786 16.9961,30.6719 9.7962,12.5072 14.7501,23.4559 15.9786,32.8496 1.2286,9.394 -1.2748,17.2319 -6.3594,23.4961 -10.1691,12.5287 -30.6634,18.7812 -52.4258,18.7812 -21.7623,0 -44.7945,-6.2582 -60.041,-18.7734 -15.2465,-12.5155 -22.692,-31.3059 -13.2656,-56.3301 4.7062,-12.4918 6.5169,-22.3503 5.8652,-30.0742 -0.6516,-7.7234 -3.7659,-13.314 -8.9199,-17.2813 -10.3081,-7.9355 -28.8196,-9.3761 -52.1407,-8.2539 -46.6229,2.2426 -112.4497,14.688 -170.4472,5.5196 -4.2701,49.9576 7.2236,108.5508 5.3027,148.1132 -0.4805,9.8961 -1.7986,18.6048 -4.418,25.6895 -2.6193,7.0851 -6.5426,12.546 -12.2226,15.9453 -11.3599,6.7982 -29.7215,5.3298 -58.7285,-7.832 -28.9831,-13.149 -50.6959,-10.5141 -65.1719,0.076 -14.4759,10.5902 -21.7207,29.1498 -21.7207,47.8789 0,18.7291 7.2433,37.6171 21.7207,48.8671 14.4774,11.2502 36.1973,14.8725 65.1797,3.0411 29.0111,-11.8384 49.3497,-10.3869 63.166,0.039 13.8163,10.4262 21.0936,29.8085 24.0273,53.7832 5.8639,47.9196 -5.6283,114.2138 -17.1054,164.2071 h 576.9804 c 1.5623,0 2.8261,-1.3058 2.8262,-2.9219 V 2500.033 c -58.0021,1.9368 -137.0936,-10.5007 -191.9023,-10.9355 z" /><path
       id="path162"
       style="opacity:1;fill:#1b10ef;fill-opacity:0.543147;stroke:none;stroke-width:1.03391;stroke-dasharray:none"
       d="m 2169.793,2484.9551 c -16.6184,-0.3339 -32.4727,0.017 -46.8164,1.2929 -28.699,2.5523 -51.3533,8.8137 -61.9825,20.6485 -5.3145,5.9176 -7.6269,13.2179 -6.207,22.1758 1.4199,8.9578 6.5793,19.5724 16.2402,32.0664 9.6693,12.5054 14.5093,23.4493 15.6426,32.8418 1.1332,9.3925 -1.438,17.2246 -6.5859,23.4883 -10.2959,12.5261 -30.8588,18.7792 -52.6211,18.7792 -21.7623,0 -44.7337,-6.2499 -59.8535,-18.7636 -15.1197,-12.5136 -22.3756,-31.312 -12.6953,-56.3321 4.8313,-12.494 6.9049,-22.5962 6.6152,-30.7441 -0.2896,-8.1475 -2.9369,-14.3352 -7.5645,-19.002 -9.255,-9.3338 -26.4525,-12.5895 -48.4882,-13.1386 -44.0486,-1.0978 -107.4239,8.5865 -165.4102,1.7734 6.4989,50.0022 -9.1894,112.4922 -12.0215,154.4707 -0.7084,10.5006 -0.612,19.7161 0.834,27.1289 1.446,7.4128 4.2385,13.016 8.9199,16.3125 4.6813,3.2965 11.262,4.2995 20.3028,2.4668 9.0408,-1.8323 20.5415,-6.5025 35.0371,-14.5137 29.0123,-16.0381 50.7866,-15.5656 65.3125,-6.3769 14.5258,9.1888 21.7871,27.0864 21.7871,45.8555 0,18.7692 -7.261,38.4174 -21.7793,51.1347 -14.5183,12.7174 -36.2982,18.4943 -65.3145,9.5157 -28.9867,-8.9662 -47.4186,-6.3286 -58.6269,4.2148 -11.2083,10.5426 -15.204,29.0153 -15.25,51.7461 -0.092,45.4375 15.5864,107.8592 20.7793,157.8555 h 579.8476 c 11.4786,-49.9905 22.9736,-116.3091 17.1133,-164.1993 -2.9312,-23.9539 -10.202,-43.2932 -23.9687,-53.6816 -13.7668,-10.3813 -34.0455,-11.8368 -63.0313,0 -29.0148,11.8446 -50.7914,8.2216 -65.3125,-3.0625 -14.5212,-11.2846 -21.7793,-30.2192 -21.7793,-48.9883 0,-18.7692 7.2567,-37.3797 21.7793,-48.0039 14.5225,-10.6268 36.2984,-13.255 65.3125,-0.09 28.99,13.1543 47.3062,14.5988 58.5996,7.8398 5.6467,-3.3792 9.5492,-8.8086 12.1602,-15.8711 2.611,-7.0624 3.9301,-15.7518 4.4101,-25.6387 1.9194,-39.5292 -9.5774,-98.1422 -5.3007,-148.1367 -43.4927,-6.8931 -100.229,-14.0629 -150.084,-15.0644 z" /><path
       id="path161"
       style="opacity:1;fill:#1b10ef;fill-opacity:0.543147;stroke:none;stroke-width:1.03391;stroke-dasharray:none"
       d="m 1441.4551,2390.9336 c -21.7355,0 -43.1365,6.2511 -55.1309,18.7285 -5.9972,6.2385 -9.6418,14.0308 -9.8183,23.3867 -0.1763,9.3554 3.1166,20.2825 11.0312,32.7735 7.9218,12.5034 12.1294,22.6066 13.1875,30.7031 1.0582,8.0961 -1.0382,14.1873 -5.7012,18.623 -9.3261,8.8717 -28.8767,11.1438 -54.0254,9.9219 -50.2672,-2.442 -122.9175,-18.894 -180.8906,-25.0293 10.8244,49.9768 22.5314,113.4502 17.0449,158.1094 -2.7453,22.3465 -9.799,39.9926 -23.4355,48.8594 -13.6366,8.8668 -33.8418,8.9383 -62.8516,-3.8086 -28.9828,-12.7313 -50.6953,-9.7809 -65.1718,1.0195 -14.4764,10.8004 -21.7207,29.4662 -21.7207,48.1953 0,18.7291 7.2438,37.5104 21.7207,48.5508 14.477,11.04 36.197,14.3474 65.1796,2.0957 29.0088,-12.2623 48.2012,-12.3484 60.5821,-3.9922 12.3809,8.3561 17.9212,25.1351 19.6601,46.5567 3.4763,42.8244 -8.2317,104.2447 -11.0214,154.2246 h 579.8085 c -5.1909,-49.977 -20.8771,-112.3958 -20.7851,-157.8692 0.046,-22.7487 4.0409,-41.2699 15.2988,-51.8594 11.2579,-10.5891 29.7611,-13.2253 58.7715,-4.2519 28.9808,8.9677 50.6975,3.2056 65.1777,-9.4785 14.4802,-12.6841 21.7305,-32.2944 21.7305,-51.0235 0,-18.7291 -7.2421,-36.5671 -21.7148,-45.7226 -14.4727,-9.1552 -36.195,-9.6456 -65.1797,6.3769 -14.5031,8.0157 -26.0087,12.6843 -35.0723,14.5215 -9.0636,1.8373 -15.6858,0.8449 -20.4082,-2.4804 -4.7223,-3.3252 -7.534,-8.9752 -8.9844,-16.4102 -1.4504,-7.4351 -1.5429,-16.6586 -0.834,-27.166 2.8345,-42.0136 18.5185,-104.5062 12.0176,-154.4649 -57.9678,-6.8199 -130.2212,9.6405 -181.4219,15.3243 -25.6086,2.8429 -45.9522,2.9993 -56.6308,-3.8379 -5.3394,-3.4186 -8.2547,-8.6008 -8.1777,-16.041 0.077,-7.4404 3.1348,-17.1427 9.7187,-29.6465 6.5737,-12.4898 8.7017,-23.404 7.5215,-32.7598 -1.1802,-9.3562 -5.6694,-17.1522 -12.3379,-23.3926 -13.3369,-12.4808 -35.4012,-18.7363 -57.1367,-18.7363 z" /><path
       id="path164"
       style="opacity:1;fill:#1b10ef;fill-opacity:0.543147;stroke:none;stroke-width:1.03391;stroke-dasharray:none"
       d="m 1020.9512,2488.627 c -14.8448,-0.2122 -28.97309,0.1907 -41.86917,1.4687 -25.79883,2.5568 -46.66061,8.6239 -58.45508,20.2773 -5.89722,5.8269 -9.53076,13.0433 -10.39062,21.9317 -0.85986,8.8883 1.05689,19.4515 6.27148,31.9414 10.44551,25.0235 3.76315,43.8157 -10.97461,56.332 -14.73773,12.5163 -37.51502,18.7715 -59.27734,18.7715 -21.76233,0 -42.51139,-6.2524 -53.18945,-18.7793 -5.33903,-6.2634 -8.16029,-14.0958 -7.31446,-23.4902 0.84587,-9.394 5.34787,-20.3482 14.63477,-32.8555 9.27777,-12.4932 14.6092,-22.8102 16.59961,-31.3066 1.99045,-8.4967 0.64767,-15.1666 -3.39844,-20.3828 -8.09227,-10.4319 -27.07073,-15.053 -52.00586,-16.6446 -49.84386,-3.181 -123.45749,5.7211 -181.44922,4.1426 8.24194,50.0086 -10.75366,113.2119 -17.31836,156.0957 -1.64194,10.7271 -2.50767,20.1832 -1.97656,27.8379 0.53108,7.6547 2.46092,13.4973 6.38672,17.0293 3.92584,3.5338 9.86259,4.7698 18.45312,3.1601 8.5905,-1.6096 19.82662,-6.0646 34.32227,-13.8867 29.01256,-15.6518 50.78907,-14.8948 65.31445,-5.5136 14.52539,9.3808 21.78711,27.3676 21.78711,46.1367 0,18.7692 -7.25285,38.3262 -21.77148,50.8535 -14.51866,12.5269 -36.3062,18.018 -65.32227,8.6601 -14.49382,-4.6741 -26.05117,-6.4662 -35.17187,-5.832 -9.12074,0.6342 -15.80012,3.6909 -20.55078,8.7188 -9.50151,10.0551 -11.28914,28.0262 -9.3125,50.3066 3.95117,44.5361 22.93539,106.2493 25.14257,156.252 h 579.82817 c 2.7907,-49.9969 14.5024,-111.4109 11.0293,-154.1954 -1.7372,-21.4015 -7.2726,-38.1281 -19.5957,-46.4453 -12.3231,-8.3172 -31.4668,-8.2461 -60.4551,4.0079 -29.0145,12.2643 -50.7929,8.9626 -65.3145,-2.1114 -14.5216,-11.0744 -21.7773,-29.907 -21.7773,-48.6758 0,-18.7691 7.2552,-37.4878 21.7773,-48.3222 14.5221,-10.8344 36.3002,-13.7703 65.3145,-1.0254 28.9873,12.737 49.1346,12.6476 62.7168,3.8164 13.5822,-8.8316 20.6207,-26.4271 23.3633,-48.752 5.4832,-44.6328 -6.2159,-108.1408 -17.043,-158.123 -43.4925,-4.6008 -94.4736,-10.7619 -139.0078,-11.3984 z" /><path
       id="path163"
       style="opacity:1;fill:#1b10ef;fill-opacity:0.543147;stroke:none;stroke-width:1.03391;stroke-dasharray:none"
       d="m 414.69531,2487.3047 c -22.11073,0.4426 -39.48911,4.1108 -49.14258,13.8926 -4.82674,4.8907 -7.72502,11.3146 -8.32812,19.6367 -0.60309,8.3226 1.09434,18.5454 5.47266,31.039 8.7699,25.0251 0.82422,43.8173 -14.75,56.3321 -15.57421,12.5148 -38.77088,18.7656 -60.53321,18.7656 -21.76233,0 -42.09237,-6.2435 -51.93359,-18.7734 -4.92062,-6.2645 -7.21333,-14.1028 -5.73828,-23.4961 1.47506,-9.3936 6.70983,-20.3427 16.83398,-32.8496 10.1147,-12.4947 15.65798,-22.6046 17.39063,-30.7227 1.73266,-8.1177 -0.33301,-14.243 -5.44532,-18.8242 -10.22461,-9.1623 -32.68567,-12.1037 -61.31054,-12.0547 -57.22393,0.097 -139.057774,12.1019 -197.0625025,9.7832 v 496.8965 c 2.032e-5,1.6161 1.2618681,2.9219 2.8242187,2.9219 H 579.96484 c -2.20576,-49.9687 -21.18086,-111.6771 -25.13476,-156.2442 -1.97803,-22.2958 -0.20174,-40.3133 9.35351,-50.4258 4.77763,-5.0563 11.49743,-8.1256 20.64453,-8.7617 9.14713,-0.6357 20.71795,1.16 35.22266,5.8379 28.98103,9.3464 50.70565,3.8647 65.18555,-8.6289 14.47987,-12.4936 21.7207,-32.0131 21.7207,-50.7422 0,-18.729 -7.23975,-36.6646 -21.71289,-46.0117 -14.47314,-9.3475 -36.1952,-10.1152 -65.17969,5.5215 -14.50292,7.8259 -25.74258,12.2784 -34.35742,13.8926 -8.61483,1.6142 -14.60827,0.3881 -18.57617,-3.1817 -3.96785,-3.5701 -5.90304,-9.4655 -6.43555,-17.1406 -0.53254,-7.6751 0.33369,-17.1349 1.97657,-27.8672 6.5688,-42.911 25.54678,-106.1168 17.30664,-156.0703 -57.98867,-1.6043 -121.07723,-13.6091 -165.28321,-12.7246 z" /><path
       id="path159"
       style="opacity:1;fill:#1b10ef;fill-opacity:0.543147;stroke:none;stroke-width:1.03391;stroke-dasharray:none"
       d="m 2585.6641,1891.7852 c -21.7354,0 -43.1315,6.2534 -55.1114,18.7285 -5.99,6.2377 -9.6235,14.0308 -9.789,23.3847 -0.1655,9.3544 3.145,20.2723 11.0742,32.7618 7.9359,12.5046 12.3922,22.5331 13.8867,30.5019 1.4945,7.9691 0.017,13.8879 -3.9101,18.1289 -3.9276,4.241 -10.2922,6.8037 -18.5743,8.1133 -8.282,1.3093 -18.4857,1.3587 -30.0859,0.5684 -46.3751,-3.1603 -115.1378,-19.8197 -173.1055,-23.918 10.8883,49.9994 -1.6097,107.9688 -2.3574,147.8379 -0.1871,9.9746 0.3601,18.8208 2.1914,26.1172 1.8313,7.2964 4.9437,13.0463 9.8828,16.8535 4.9391,3.8071 11.7072,5.6728 20.8731,5.1894 9.1659,-0.4834 20.7276,-3.3233 35.2226,-8.9257 29.0151,-11.2108 50.792,-7.1126 65.3125,4.4882 14.5205,11.6009 21.7793,30.6976 21.7793,49.4668 0,18.7691 -7.256,37.2179 -21.7793,47.5254 -14.5232,10.3076 -36.3067,12.4631 -65.3203,-1.3359 -14.494,-6.8935 -26.2575,-10.3005 -35.7578,-10.793 -9.5004,-0.4921 -16.7326,1.9194 -22.1914,6.6797 -10.9175,9.5207 -14.7387,28.4443 -15.1934,52.2285 -0.9092,47.5478 11.5977,114.496 7.3203,164.5078 57.9635,9.1645 123.7808,-3.2737 170.4239,-5.5175 23.3303,-1.1222 41.8665,0.3023 52.2344,8.2832 5.184,3.9904 8.3219,9.6242 8.9765,17.3828 0.6546,7.7586 -1.1698,17.6364 -5.8808,30.1406 -9.4082,24.9759 -1.9788,43.685 13.2304,56.1699 15.2092,12.4846 38.2117,18.7266 59.9473,18.7266 21.7354,0 42.1977,-6.2494 52.3203,-18.7207 5.0613,-6.2354 7.546,-14.0211 6.3223,-23.377 -1.2236,-9.3562 -6.164,-20.2825 -15.9493,-32.7754 -9.7943,-12.503 -15.2274,-22.6107 -17.0175,-30.7382 -1.7901,-8.1276 0.078,-14.2795 4.8945,-18.8399 9.6326,-9.1208 30.9873,-11.8969 58.4141,-11.6777 54.8319,0.4348 133.9275,12.8732 191.9062,10.9355 v -499.8359 c -57.9761,2.209 -134.1079,18.8731 -189.1992,22.5058 -27.558,1.8172 -49.8501,0.3816 -61.9961,-7.789 -6.073,-4.0853 -9.6088,-9.8599 -9.9687,-17.7383 -0.3597,-7.8788 2.4496,-17.8545 9.0195,-30.3613 6.5592,-12.488 8.6695,-23.4069 7.4785,-32.7618 -1.1911,-9.3545 -5.6837,-17.1529 -12.3594,-23.3925 -13.3514,-12.4789 -35.4285,-18.7285 -57.164,-18.7285 z" /><path
       id="path160"
       style="opacity:1;fill:#1b10ef;fill-opacity:0.543147;stroke:none;stroke-width:1.03391;stroke-dasharray:none"
       d="m 2141.9219,1982.4727 c -24.1818,0.01 -42.5317,3.3999 -50.4278,12.998 -3.9481,4.7989 -5.2994,11.1535 -3.4687,19.4375 1.8308,8.2843 6.8516,18.4928 15.6348,30.9883 8.7922,12.508 12.8619,23.463 13.3359,32.8574 0.474,9.3944 -2.6539,17.2275 -8.2402,23.4902 -11.1725,12.5254 -32.1713,18.7715 -53.9336,18.7715 -21.7624,0 -44.2917,-6.2482 -58.5352,-18.7656 -7.1217,-6.2586 -12.1719,-14.0872 -14.0078,-23.4805 -1.8359,-9.3932 -0.458,-20.3464 5.2598,-32.8574 5.7095,-12.4932 7.9281,-22.311 7.2285,-29.9551 -0.6997,-7.6441 -4.3072,-13.1187 -10.2969,-16.9492 -11.9795,-7.6607 -33.4782,-8.7111 -60.0332,-7.1543 -53.0796,3.1121 -126.361,16.6116 -184.3613,8.209 10.7306,49.969 28.7118,105.2262 29.5273,143.4141 0.4081,19.1063 -3.4874,33.9518 -14.7558,41.7089 -11.2682,7.7571 -29.877,8.407 -58.8848,-0.8203 -28.9809,-9.2228 -50.6997,-3.6462 -65.1797,8.9102 -14.48,12.5563 -21.7285,32.1029 -21.7285,50.832 10e-5,18.7291 7.2418,36.6334 21.7148,45.916 14.4731,9.2829 36.1932,9.9577 65.1778,-5.8105 14.5038,-7.8883 25.8653,-11.9997 34.6816,-12.9551 8.8162,-0.9555 15.0928,1.2505 19.3809,5.9942 4.288,4.7441 6.5867,12.0106 7.498,21.1718 0.9113,9.1612 0.4349,20.2228 -0.8476,32.5528 -5.1281,49.2971 -23.1116,118.9458 -16.6153,168.914 57.9696,6.8189 121.3534,-2.8698 165.4356,-1.7715 22.0475,0.5495 39.2747,3.7914 48.582,13.1778 4.6536,4.6931 7.3147,10.9246 7.6055,19.1035 0.2908,8.1786 -1.7851,18.3064 -6.6211,30.8125 -9.6618,24.9721 -2.4299,43.672 12.6523,56.1543 15.0822,12.4827 38.0263,18.7266 59.7617,18.7266 21.7355,0 42.2564,-6.249 52.5059,-18.7188 5.1248,-6.2351 7.6853,-14.0164 6.5566,-23.3711 -1.1286,-9.3548 -5.9472,-20.2863 -15.6054,-32.7773 -9.6702,-12.506 -14.8514,-23.1286 -16.2774,-32.125 -1.426,-8.9964 0.9111,-16.3619 6.252,-22.3086 10.6816,-11.8934 33.3537,-18.1383 62.0664,-20.6914 57.4002,-5.1047 138.9348,4.5782 196.9297,13.7695 4.2703,-49.9729 -8.23,-116.9053 -7.3203,-164.4785 0.4551,-23.7994 4.265,-42.7632 15.2421,-52.336 5.4886,-4.7864 12.7653,-7.2201 22.293,-6.7265 9.5278,0.4937 21.3099,3.9102 35.8145,10.8086 28.9834,13.7847 50.6965,11.6232 65.1718,1.3496 14.4753,-10.2735 21.7207,-28.6694 21.7207,-47.3985 0,-18.729 -7.2426,-37.7803 -21.7207,-49.3476 -14.478,-11.5668 -36.1976,-15.6648 -65.1796,-4.4668 -14.5036,5.6058 -26.0772,8.4471 -35.2657,8.9316 -9.1885,0.4846 -15.993,-1.3863 -20.9648,-5.2187 -4.9718,-3.8321 -8.1028,-9.6161 -9.9395,-16.9336 -1.8369,-7.318 -2.3843,-16.1722 -2.1972,-26.1543 0.7485,-39.9132 13.2506,-97.8918 2.3515,-147.8555 -57.9934,-4.0854 -129.6254,-17.5722 -177.9726,-17.5722 z" /><path
       id="path157"
       style="opacity:1;fill:#1b10ef;fill-opacity:0.543147;stroke:none;stroke-width:1.03391;stroke-dasharray:none"
       d="m 1473.2031,1875.125 c -21.7355,0 -44.8629,6.2491 -60.3261,18.7344 -15.4632,12.4853 -23.2663,31.1947 -14.3653,56.1699 4.4558,12.5079 5.8795,22.8876 4.7383,31.4531 -1.1412,8.5656 -4.8518,15.3151 -10.6738,20.5449 -11.644,10.4595 -31.7011,14.8546 -56.4883,15.7012 -49.5531,1.6929 -118.032,-10.8157 -176.0098,-17.6719 -5.9727,49.999 -19.5352,119.672 -17.1289,168.4746 1.2039,24.4167 6.4069,43.5998 18.5254,52.4844 6.0592,4.4424 13.8508,6.3169 23.7559,4.9903 9.9049,-1.327 21.9199,-5.8626 36.414,-14.2403 29.0119,-16.7694 50.7936,-16.8456 65.3203,-8.0234 14.5267,8.8222 21.7852,26.5335 21.7852,45.3027 0,18.7687 -7.2596,38.602 -21.7773,51.6875 -14.5176,13.0859 -36.2979,19.4176 -65.3145,11.1778 -28.9884,-8.2356 -48.669,-6.8457 -61.5547,1.416 -12.8857,8.2616 -18.9953,23.4021 -20.8066,42.7129 -3.6215,38.6112 9.9473,93.8575 20.7773,143.8496 57.9948,6.1328 130.6726,22.5935 180.9297,25.0351 25.1366,1.2215 44.6592,-1.0753 53.9199,-9.8847 4.6303,-4.4046 6.7117,-10.4316 5.6582,-18.4922 -1.0535,-8.0602 -5.251,-18.1497 -13.166,-30.6426 -7.9258,-12.5087 -11.2377,-23.4614 -11.0605,-32.8555 0.1771,-9.3944 3.85,-17.2286 9.8691,-23.4902 12.0375,-12.5221 33.4674,-18.7708 55.2285,-18.7715 v 0 c 21.7618,3e-4 43.8567,6.2525 57.2344,18.7715 6.689,6.2597 11.1958,14.0884 12.3808,23.4824 1.185,9.394 -0.9507,20.3472 -7.5351,32.8574 -6.5778,12.4922 -9.6281,22.179 -9.7051,29.5782 -0.077,7.3992 2.8095,12.5123 8.1133,15.9082 10.6076,6.7918 30.9361,6.6583 56.5371,3.8164 51.1742,-5.6809 123.4191,-22.1408 181.4199,-15.3282 -6.4946,-50.0201 11.4903,-119.6584 16.6152,-168.9257 1.282,-12.3247 1.7592,-23.3719 0.8496,-32.5157 -0.9095,-9.1438 -3.2077,-16.3844 -7.4629,-21.0918 -4.2552,-4.7074 -10.4677,-6.9016 -19.2539,-5.9492 -8.7862,0.9521 -20.1421,5.058 -34.6367,12.9414 -29.0126,15.7829 -50.7888,15.117 -65.3144,5.8008 -14.5255,-9.3166 -21.7852,-27.2719 -21.7852,-46.041 0,-18.7692 7.2529,-38.3514 21.7715,-50.9414 14.5185,-12.59 36.3042,-18.1736 65.3203,-8.9395 28.9893,9.2213 47.5536,8.5506 58.7637,0.834 11.2101,-7.7171 15.0931,-22.4984 14.6855,-41.582 -0.8148,-38.1539 -18.7992,-93.4299 -29.5312,-143.4219 -57.9722,-8.404 -134.4206,4.1047 -186.3477,6.2305 -12.9858,0.5314 -24.4391,0.4086 -33.6894,-0.8496 -9.2502,-1.2586 -16.2954,-3.6551 -20.4727,-7.6992 -4.1774,-4.0445 -5.4662,-9.735 -3.1894,-17.5254 2.2768,-7.79 8.1049,-17.6875 18.1543,-30.1914 10.0389,-12.4932 15.1977,-23.4192 16.6113,-32.7754 1.4135,-9.3562 -0.9094,-17.1435 -5.8438,-23.3789 -9.8687,-12.4702 -30.206,-18.7266 -51.9414,-18.7266 z" /><path
       id="path156"
       style="opacity:1;fill:#1b10ef;fill-opacity:0.543147;stroke:none;stroke-width:1.03391;stroke-dasharray:none"
       d="m 903.60742,1874.1641 c -21.73551,0 -44.91485,6.2451 -60.46875,18.7285 -15.55393,12.4834 -23.49131,31.1907 -14.77148,56.1621 4.36891,12.5083 5.5832,22.9868 4.125,31.7187 -1.45817,8.7318 -5.59011,15.7118 -11.88867,21.2012 -12.59712,10.978 -33.8614,16.0147 -59.83399,17.3262 -51.92216,2.6225 -122.67786,-9.6503 -180.66015,-19.2481 -6.59924,49.9912 -18.30662,109.9651 -13.88477,152.9922 2.21186,21.5229 8.45663,38.7951 21.37891,48.4707 12.92229,9.6756 32.53837,11.7722 61.52539,2.8926 29.01632,-8.8853 50.79623,-3.0404 65.31445,9.7227 14.51819,12.7631 21.77148,32.4319 21.77148,51.2011 0,18.7691 -7.25922,36.6446 -21.78515,45.7891 -14.52594,9.145 -36.30216,9.548 -65.31446,-6.5762 -28.9887,-16.1114 -48.81197,-18.1931 -61.98828,-10.7187 -13.17632,7.474 -19.73711,24.5225 -22.1582,46.7265 -4.84011,44.3891 6.86726,109.3398 15.13867,159.3321 57.97902,1.5821 131.60417,-7.334 181.48242,-4.1504 24.94781,1.5923 43.96497,6.201 52.11328,16.7051 4.07415,5.252 5.41601,11.9785 3.41797,20.5078 -1.99805,8.5289 -7.33417,18.8699 -16.61914,31.373 -9.27579,12.4925 -13.76502,23.4117 -14.60742,32.7676 -0.84244,9.3558 1.96322,17.1501 7.2793,23.3867 10.63225,12.4732 31.34656,18.7207 53.08203,18.7207 21.73546,0 44.48615,-6.2448 59.18555,-18.7285 14.69941,-12.4835 21.35779,-31.1836 10.93164,-56.1602 -5.22127,-12.5061 -7.14241,-23.0936 -6.2793,-32.0156 0.86311,-8.922 4.51265,-16.1808 10.43164,-22.0293 11.83799,-11.6965 32.72986,-17.7561 58.54297,-20.3144 51.59884,-5.1133 122.87804,3.7919 180.85744,9.9257 -10.8273,-49.9732 -24.3963,-105.1885 -20.7715,-143.8339 1.8136,-19.3353 7.9354,-34.5363 20.8711,-42.8301 12.9357,-8.2938 32.6672,-9.6749 61.6758,-1.4336 28.9805,8.2295 50.6968,1.9139 65.1777,-11.1387 14.481,-13.0522 21.7227,-32.8471 21.7227,-51.5762 0,-18.7291 -7.2431,-36.3888 -21.7149,-45.1777 -14.4718,-8.7885 -36.1867,-8.7226 -65.1719,8.0313 -14.5044,8.3841 -26.5388,12.9235 -36.4707,14.2539 -9.9319,1.3308 -17.764,-0.5537 -23.8554,-5.0196 -12.1827,-8.9318 -17.3831,-28.1614 -18.5879,-52.5957 -2.4083,-48.8419 11.1579,-118.5245 17.1289,-168.5136 -57.9695,-6.826 -132.1157,5.4373 -181.66798,6.9257 -12.39336,0.3723 -23.24991,0.072 -31.93164,-1.373 -8.68173,-1.4449 -15.19702,-4.0363 -18.89649,-8.252 -3.69947,-4.2157 -4.56196,-10.0576 -1.96875,-17.9531 2.59321,-7.8954 8.6372,-17.8519 18.77344,-30.3555 10.12951,-12.4918 15.36626,-23.4206 16.84766,-32.7753 1.4814,-9.3551 -0.78282,-17.1372 -5.67188,-23.3711 -9.77808,-12.4683 -30.07117,-18.7207 -51.80664,-18.7207 z" /><path
       id="path158"
       style="opacity:1;fill:#1b10ef;fill-opacity:0.543147;stroke:none;stroke-width:1.03391;stroke-dasharray:none"
       d="m 296.29102,1878.7129 c -21.73547,0 -43.18859,6.2429 -55.30274,18.7187 -6.05707,6.2377 -9.781,14.0324 -10.04687,23.3868 -0.26587,9.3543 2.92369,20.2723 10.71875,32.7617 7.80253,12.5057 11.7013,22.6647 12.30859,30.8633 0.60728,8.1985 -2.08408,14.4437 -7.42773,19.0898 -10.6873,9.2924 -31.96027,12.2291 -58.80664,11.957 -53.66853,-0.5398 -129.608027,-13.9372 -187.5859425,-15.4394 v 499.8359 c 57.9805705,2.3192 139.8090625,-9.6852 197.0546825,-9.7832 28.63456,-0.049 51.1198,2.8686 61.41211,12.0918 5.14614,4.6114 7.23536,10.813 5.49415,18.9707 -1.74122,8.1578 -7.29727,18.2764 -17.41993,30.7813 -10.1132,12.4933 -15.33548,23.4211 -16.80468,32.7773 -1.46921,9.3563 0.81177,17.1419 5.70898,23.377 9.79441,12.4702 30.08483,18.7207 51.82031,18.7207 21.73548,0 44.90968,-6.2495 60.44727,-18.7344 15.53759,-12.4853 23.45361,-31.187 14.70117,-56.1621 -4.38286,-12.5065 -6.09355,-22.755 -5.48828,-31.1074 0.60527,-8.3524 3.52565,-14.8089 8.37695,-19.7246 9.70259,-9.8318 27.11938,-13.493 49.24414,-13.9356 44.22594,-0.885 107.29632,11.1155 165.25977,12.7227 -8.27096,-49.9878 -19.97894,-114.9231 -15.13477,-159.3497 2.42347,-22.2253 8.99438,-39.3275 22.23438,-46.8378 13.24,-7.5107 33.11661,-5.4111 62.125,10.7109 28.98475,16.1091 50.70514,15.689 65.17773,6.5781 14.47259,-9.1113 21.71485,-26.9291 21.71485,-45.6582 0,-18.7291 -7.24818,-38.36 -21.72852,-51.0898 -14.48034,-12.7298 -36.19892,-18.5658 -65.17969,-9.6914 -29.01003,8.8864 -48.67384,6.8017 -61.64453,-2.9102 -12.9707,-9.7118 -19.22931,-27.036 -21.44336,-48.5801 -4.42604,-43.0681 7.28446,-103.0411 13.88281,-153.0234 -57.96264,-9.5653 -126.93105,3.8402 -174.73242,7.1504 -23.91075,1.6558 -42.52714,0.7926 -51.84179,-6.7695 -4.65732,-3.7811 -6.97937,-9.2411 -6.45118,-16.875 0.52818,-7.6342 3.89437,-17.444 10.59766,-29.9493 6.69328,-12.4879 8.92661,-23.4054 7.83594,-32.7597 -1.09067,-9.3547 -5.50276,-17.1475 -12.11133,-23.3867 -13.21715,-12.4789 -35.22936,-18.7266 -56.96484,-18.7266 z" /><path
       id="path153"
       style="opacity:1;fill:#1b10ef;fill-opacity:0.543147;stroke:none;stroke-width:1.03391;stroke-dasharray:none"
       d="m 2590.6445,1359.2559 c -21.7354,0 -43.679,6.2539 -56.7656,18.7343 -6.5432,6.24 -10.8742,14.0306 -11.8672,23.3868 -0.993,9.3559 1.3541,20.2773 8.1778,32.7675 6.8303,12.5053 10.4841,22.8049 11.4179,31.2696 0.9337,8.465 -0.8571,15.0967 -4.9101,20.2558 -8.106,10.3181 -25.2323,14.7358 -47.6739,16.2559 -44.8652,3.0387 -111.0219,-5.5051 -168.9922,-1.8574 3.3642,49.9762 15.6946,111.212 12.6954,153.4296 -1.5005,21.1208 -6.8405,37.4942 -19.0801,45.3028 -12.2396,7.8085 -31.3472,7.0315 -60.3555,-6.0899 -28.9831,-13.1097 -50.7017,-10.4422 -65.1777,0.17 -14.4761,10.6118 -21.7227,29.1861 -21.7227,47.916 0,18.7298 7.2453,37.6089 21.7227,48.8379 14.4773,11.229 36.1953,14.8139 65.1777,2.9375 14.5043,-5.9437 26.0849,-8.7209 35.2949,-8.8418 9.2099,-0.1195 16.0532,2.4247 21.0567,7.1367 10.0069,9.4246 12.6587,27.474 12.373,50.1172 -0.5709,45.2722 -12.9013,108.952 -2,158.9121 57.9947,4.0949 126.789,20.7706 173.1504,23.9297 11.5942,0.7903 21.7837,0.7366 30.0488,-0.5703 8.265,-1.3066 14.6025,-3.8624 18.4961,-8.0664 3.8936,-4.2043 5.3558,-10.0607 3.8672,-17.9981 -1.4885,-7.937 -5.9352,-17.9557 -13.8652,-30.4512 -7.9402,-12.5069 -11.2679,-23.4567 -11.1016,-32.8496 0.1662,-9.3928 3.8281,-17.22 9.8399,-23.4804 12.0236,-12.5208 33.4467,-18.7735 55.209,-18.7735 21.7624,0 43.8653,6.2486 57.2578,18.7656 6.6963,6.2589 11.2142,14.09 12.4101,23.4825 1.1959,9.3925 -0.9302,20.347 -7.5,32.8554 -6.5628,12.4932 -9.3499,22.4456 -8.9922,30.2813 0.3578,7.8361 3.8563,13.5566 9.8985,17.6211 12.0845,8.1286 34.3619,9.582 61.9101,7.7656 55.0748,-3.6315 131.2093,-20.3034 189.209,-22.5117 v -499.8301 c -57.978,-5.762 -136.7316,2.7813 -193.3457,0.2715 -28.3175,-1.2556 -51.097,-5.2713 -62.9805,-15.25 -5.9417,-4.9894 -9.1563,-11.4809 -8.955,-19.8438 0.2011,-8.363 3.8064,-18.5931 11.4824,-31.0996 7.6646,-12.491 10.7464,-23.412 10.3828,-32.7675 -0.3635,-9.3558 -4.1686,-17.1557 -10.291,-23.3946 -12.2448,-12.4781 -33.7665,-18.7265 -55.502,-18.7265 z" /><path
       id="path155"
       style="opacity:1;fill:#1b10ef;fill-opacity:0.543147;stroke:none;stroke-width:1.03391;stroke-dasharray:none"
       d="m 1921.1836,1491.7539 c -51.7796,-3.1405 -123.1419,6.624 -181.1348,8.3164 -7.3001,49.9612 12.2713,106.1579 19.1875,145.8594 1.7296,9.9284 2.6709,18.8238 2.1973,26.3379 -0.4735,7.5141 -2.3604,13.6471 -6.2871,18.0351 -3.9266,4.388 -9.889,7.0224 -18.4883,7.5508 -8.5994,0.5288 -19.8419,-1.0413 -34.3457,-5.0703 -28.9804,-8.0455 -50.6966,-1.5918 -65.1777,11.5527 -14.4811,13.1441 -21.7286,32.9877 -21.7286,51.7168 0,18.7287 7.2413,36.3322 21.7129,45.0293 14.4716,8.6971 36.1944,8.4997 65.1797,-8.4375 14.5031,-8.4752 25.6303,-13.1606 34.0586,-14.6679 8.4284,-1.5069 14.1621,0.1707 17.8262,4.414 3.6642,4.2433 5.2576,11.0336 5.4512,19.7481 0.1936,8.7144 -1.0108,19.3561 -2.9532,31.3066 -7.7659,47.7811 -27.3318,116.5012 -16.6406,166.4551 57.9709,8.413 131.2727,-5.0795 184.3848,-8.1934 26.563,-1.5576 48.073,-0.5257 60.1133,7.1739 6.0202,3.8498 9.6715,9.3748 10.375,17.0605 0.7034,7.6857 -1.5341,17.5302 -7.25,30.0371 -5.7076,12.4891 -7.073,23.4032 -5.2442,32.7598 1.8288,9.357 6.855,17.153 13.9571,23.3945 14.2041,12.4827 36.7078,18.7344 58.4433,18.7344 21.7354,0 42.6968,-6.2519 53.8242,-18.7266 5.5637,-6.2373 8.6712,-14.0234 8.1993,-23.3789 -0.472,-9.3558 -4.5276,-20.2833 -13.3086,-32.7754 -8.7898,-12.5045 -13.8165,-22.7327 -15.6543,-31.0488 -1.8378,-8.3164 -0.4824,-14.7265 3.4961,-19.5625 7.957,-9.6718 26.348,-13.0508 50.5429,-13.0508 48.3626,-0.013 119.9665,13.475 177.9395,17.5625 -10.8912,-50.0023 1.4374,-113.6674 2.0078,-158.8965 0.2854,-22.63 -2.376,-40.6344 -12.3242,-50.0039 -4.9741,-4.6844 -11.7679,-7.2186 -20.9512,-7.1015 -9.1833,0.1191 -20.7558,2.8964 -35.25,8.8359 -29.0147,11.89 -50.7933,8.3021 -65.3145,-2.9609 -14.5212,-11.263 -21.7793,-30.1872 -21.7793,-48.9571 0,-18.7699 7.2568,-37.3952 21.7793,-48.041 14.5225,-10.6466 36.3064,-13.3018 65.3204,-0.1777 28.9888,13.1123 48.0422,13.8672 60.2207,6.0976 12.1786,-7.7696 17.5106,-24.0832 19.0097,-45.1836 2.9967,-42.1807 -9.3273,-103.4266 -12.6914,-153.4218 -57.9972,3.6478 -131.5506,-6.1188 -181.2031,-4.3145 -24.8369,0.9025 -43.6881,4.7122 -51.6074,14.4981 -3.9597,4.8926 -5.1997,11.2774 -3.1035,19.5761 2.0962,8.2987 7.5328,18.5006 16.9394,30.9961 9.4156,12.5053 14.036,23.4571 14.9785,32.8496 0.9426,9.3929 -1.7974,17.2276 -7.0722,23.4903 -10.5494,12.5254 -31.2338,18.7715 -52.9961,18.7715 -21.7623,0 -44.6044,-6.2517 -59.4707,-18.7657 -14.8663,-12.514 -21.7408,-31.3025 -11.5528,-56.3222 5.0861,-12.4925 6.8816,-22.8631 5.916,-31.4317 -0.9656,-8.569 -4.6941,-15.3432 -10.6757,-20.6621 -11.9632,-10.6379 -32.9571,-15.4371 -58.8555,-17.0078 z" /><path
       id="path148"
       style="opacity:1;fill:#1b10ef;fill-opacity:0.543147;stroke:none;stroke-width:1.03391;stroke-dasharray:none"
       d="m 1526.873,1480.873 c -0.3645,0.021 -0.7709,0.017 -1.1308,0.041 -11.437,0.7531 -20.5824,2.9561 -26.6074,7.2734 -5.3824,3.857 -8.2935,9.3783 -8.17,17.0742 0.1234,7.6958 3.2865,17.5607 10.0743,30.0528 6.7965,12.5098 9.1252,23.4692 8.0996,32.8632 -1.0256,9.394 -5.4052,17.2224 -11.9883,23.4825 -13.1662,12.5197 -35.1596,18.7714 -56.9219,18.7714 -21.7623,0 -43.2949,-6.2495 -55.5449,-18.7714 -6.125,-6.2612 -9.9253,-14.0959 -10.2617,-23.4903 -0.3365,-9.3944 2.7902,-20.3467 10.5039,-32.8554 7.7052,-12.4936 11.7727,-22.2601 12.7793,-29.795 1.0065,-7.5345 -1.0357,-12.8357 -5.586,-16.4394 -4.5502,-3.6034 -11.6172,-5.5057 -20.6367,-6.1992 -9.0195,-0.6936 -19.9946,-0.1814 -32.3554,1.039 -49.4177,4.8788 -121.0263,21.0275 -179.0254,16.1602 5.3421,50.0048 -4.2029,116.3493 -0.6036,163.6328 1.801,23.6583 6.8976,42.5337 18.7598,52.2051 5.9311,4.836 13.556,7.3821 23.3262,7.0722 9.7702,-0.3084 21.6782,-3.4682 36.1719,-10.039 29.014,-13.155 50.7997,-10.5221 65.3222,0.1093 14.5226,10.6311 21.7774,29.2497 21.7774,48.0196 0,18.7703 -7.2562,37.7008 -21.7774,48.9785 -14.5211,11.2781 -36.2996,14.8852 -65.3144,3.0254 -28.9893,-11.8492 -47.5835,-12.328 -59.3496,-4.8555 -11.7661,7.4721 -16.7413,22.9202 -18.4668,42.9922 -3.4495,40.1267 6.1033,98.6862 0.1504,148.6816 57.9847,6.857 126.4553,19.3696 175.9804,17.6778 24.7732,-0.8462 44.8055,-5.2548 56.4024,-15.6719 5.7985,-5.2086 9.4882,-11.9146 10.625,-20.4473 1.1368,-8.5322 -0.288,-18.8887 -4.7383,-31.3808 -8.9186,-25.025 -1.086,-43.8227 14.414,-56.3379 15.5,-12.5148 38.6557,-18.7656 60.418,-18.7656 21.7623,0 42.1333,6.2494 52.0488,18.7793 4.9578,6.2646 7.3001,14.1025 5.8809,23.4961 -1.4192,9.3941 -6.5908,20.3424 -16.6406,32.8496 -10.043,12.4959 -15.8582,22.3842 -18.125,30.1406 -2.2668,7.756 -1,13.3698 3.1387,17.3769 4.1387,4.007 11.1663,6.4 20.4023,7.6563 9.2361,1.2563 20.6844,1.379 33.666,0.8476 51.8944,-2.1243 128.3157,-14.6399 186.3184,-6.246 -10.6841,-50.0167 8.8875,-118.7197 16.6484,-166.4688 1.9416,-11.9464 3.1406,-22.5799 2.9473,-31.2773 -0.1932,-8.6975 -1.7814,-15.458 -5.4082,-19.6582 -3.6267,-4.2002 -9.2897,-5.8652 -17.6895,-4.3633 -8.3997,1.502 -19.5223,6.184 -34.0176,14.6543 -29.0119,16.9535 -50.7933,17.1675 -65.3203,8.4375 -14.5269,-8.7303 -21.7851,-26.3933 -21.7851,-45.1621 0,-18.7691 7.254,-38.6508 21.7715,-51.8282 14.5174,-13.1777 36.2959,-19.6459 65.3125,-11.5898 14.4948,4.0259 25.7279,5.5968 34.3027,5.0703 8.5749,-0.5268 14.4921,-3.1456 18.3887,-7.5 3.8966,-4.3544 5.7718,-10.4516 6.2441,-17.9453 0.4723,-7.4932 -0.4629,-16.3784 -2.1914,-26.3008 -6.9101,-39.6665 -26.4851,-95.8646 -19.1934,-145.8711 -57.9975,1.6684 -131.2861,-14.4737 -183.2929,-18.5527 -6.5043,-0.5101 -12.6749,-0.831 -18.4414,-0.9043 -3.9826,-0.051 -7.7184,0.052 -11.2911,0.2558 z" /><path
       id="path152"
       style="opacity:1;fill:#1b10ef;fill-opacity:0.543147;stroke:none;stroke-width:1.03391;stroke-dasharray:none"
       d="m 957.41406,1474.6016 c -0.7465,0.065 -1.56952,0.08 -2.29297,0.1601 -10.17876,1.1063 -18.07629,3.6962 -22.89843,8.3535 -4.33577,4.1877 -6.22395,10.0245 -5.11719,17.9532 1.10673,7.9287 5.21408,17.9426 12.85937,30.4355 7.65392,12.5091 10.72711,23.463 10.34571,32.8574 -0.38139,9.3944 -4.22013,17.2291 -10.375,23.4903 -12.30973,12.5219 -33.87635,18.7636 -55.63867,18.7636 -21.76235,0 -43.72171,-6.2439 -56.82813,-18.7636 -6.55322,-6.2601 -10.89428,-14.0963 -11.875,-23.4903 -0.98068,-9.3941 1.39369,-20.3476 8.25,-32.8574 6.84758,-12.4917 9.98201,-22.2663 10.00391,-29.8144 0.0235,-7.5485 -3.04997,-12.87 -8.64844,-16.4844 -11.19698,-7.2279 -32.50957,-7.5814 -59.16406,-4.961 -53.28709,5.2393 -127.92056,22.3355 -185.92383,19.8321 -6.27812,49.965 10.08449,109.7581 13.53711,149.7461 0.86345,10.0007 0.91824,18.7642 -0.39258,25.8281 -1.31078,7.064 -3.99207,12.4332 -8.60547,15.6269 -4.6134,3.1941 -11.15162,4.2061 -20.15234,2.584 -9.00072,-1.6222 -20.46978,-5.8788 -34.97266,-13.2285 -28.98395,-14.6842 -50.70346,-13.1964 -65.17773,-3.373 -14.47424,9.8238 -21.71485,27.9994 -21.71485,46.7285 0,18.7291 7.24172,38.0021 21.72071,50.0195 14.47895,12.0174 36.19818,16.7868 65.17968,6.4883 29.01062,-10.3087 47.52944,-8.0011 58.75586,2.8496 11.22642,10.8506 15.14171,30.2147 15.02735,53.9766 -0.22834,47.4973 -16.58419,112.6102 -23.1875,162.5839 57.98353,9.5978 128.7385,21.8672 180.63281,19.2461 25.95838,-1.3111 47.19572,-6.3558 59.74805,-17.2949 6.27613,-5.4694 10.38726,-12.4072 11.83984,-21.1054 1.45257,-8.6982 0.24399,-19.1548 -4.11914,-31.6465 -8.73726,-25.0213 -0.76824,-43.8172 14.82226,-56.3301 15.58971,-12.5123 38.78944,-18.7572 60.55079,-18.7578 h 0.002 0.002 c 21.76103,6e-4 42.08575,6.244 51.91016,18.7715 4.91248,6.2638 7.1963,14.104 5.70898,23.4961 -1.48732,9.3922 -6.73648,20.3372 -16.87695,32.8418 -10.13011,12.4963 -16.1689,22.4461 -18.75195,30.3105 -2.58309,7.8645 -1.72286,13.6314 1.93945,17.8047 3.66231,4.1734 10.14438,6.7589 18.81055,8.2012 8.66612,1.4411 19.51567,1.7434 31.90429,1.373 49.53345,-1.4878 123.69455,-13.7617 181.69725,-6.9316 5.9464,-49.96 -3.597,-108.5048 -0.1445,-148.666 1.7271,-20.0905 6.7125,-35.5909 18.5391,-43.1016 11.8264,-7.5103 30.4629,-7.0154 59.4707,4.8418 28.9823,11.8466 50.7003,8.2399 65.1777,-3.0039 14.4773,-11.2441 21.7207,-30.1313 21.7207,-48.8613 0,-18.7299 -7.2447,-37.2956 -21.7207,-47.8926 -14.476,-10.5951 -36.1888,-13.2337 -65.1719,-0.094 -14.5048,6.576 -26.4395,9.735 -36.2363,10.0449 -9.7968,0.3092 -17.4588,-2.241 -23.418,-7.0996 -11.9184,-9.7176 -17.0084,-28.6343 -18.8105,-52.3086 -3.6029,-47.3285 5.9404,-113.7018 0.5918,-163.6777 -57.9935,-4.8976 -128.2917,-21.993 -176.43949,-25.3809 -6.02071,-0.4235 -11.69567,-0.6308 -16.95508,-0.5742 -3.24596,0.035 -6.22423,0.2419 -9.13867,0.4903 z" /><path
       id="path154"
       style="opacity:1;fill:#1b10ef;fill-opacity:0.543147;stroke:none;stroke-width:1.03391;stroke-dasharray:none"
       d="m 311.01172,1389.2695 c -21.73548,0 -43.48739,6.2493 -56.1875,18.7285 -6.35005,6.2396 -10.43463,14.0368 -11.13867,23.3926 -0.70403,9.3559 1.97387,20.279 9.18359,32.7696 7.21887,12.5064 10.50212,22.3953 10.48242,30.1464 -0.0199,7.7507 -3.35267,13.3593 -9.33203,17.2598 -11.9587,7.8002 -34.48502,8.8224 -62.43945,6.8359 -55.88593,-3.9721 -133.456999,-20.0111 -191.4316425,-18.332 v 499.8242 c 57.9972395,1.5018 133.9372025,14.9094 187.5859425,15.4493 26.83534,0.2697 48.08672,-2.6902 58.71289,-11.9297 5.31308,-4.6193 7.97546,-10.8053 7.37109,-18.9649 -0.60437,-8.1593 -4.48425,-18.295 -12.2793,-30.789 -7.80616,-12.5072 -11.015,-23.4568 -10.74804,-32.8497 0.26697,-9.3933 4.01103,-17.2203 10.08984,-23.4804 12.15763,-12.5204 33.64784,-18.7735 55.41016,-18.7735 21.76233,0 43.80788,6.2557 57.0664,18.7735 6.62926,6.2585 11.05726,14.0801 12.15235,23.4726 1.09509,9.3925 -1.14557,20.3491 -7.84961,32.8575 -6.69767,12.4947 -10.05831,22.2848 -10.58399,29.8828 -0.52567,7.598 1.7721,12.9969 6.39453,16.75 9.24487,7.5053 27.83977,8.3858 51.74219,6.7304 47.78411,-3.309 116.76486,-16.714 174.76563,-7.1425 6.60499,-49.9901 22.96708,-115.1029 23.19531,-162.5664 0.11414,-23.7445 -3.80856,-43.0637 -14.98438,-53.8653 -11.17586,-10.8015 -29.62099,-13.1206 -58.60742,-2.8203 -29.01555,10.3106 -50.79293,5.5409 -65.3125,-6.5098 -14.51958,-12.051 -21.7793,-31.3695 -21.7793,-50.1386 0,-18.7692 7.25501,-36.9957 21.7793,-46.8535 14.52429,-9.8574 36.3072,-11.3323 65.32031,3.3671 14.49564,7.3459 25.95852,11.5945 34.9375,13.2129 8.97902,1.618 15.47237,0.6052 20.04493,-2.5605 4.57255,-3.1657 7.23454,-8.4908 8.54101,-15.5313 1.30647,-7.0409 1.24763,-15.7916 0.38477,-25.7851 -3.44962,-39.9533 -19.81557,-99.7533 -13.53907,-149.7617 -57.96355,-2.5007 -125.29542,13.5347 -170.8789,17.7128 -11.40121,1.0451 -21.44578,1.351 -29.64258,0.4356 -8.19683,-0.9154 -14.55098,-3.0518 -18.57422,-6.8945 -4.02323,-3.8426 -5.6999,-9.3926 -4.54492,-17.0957 1.15499,-7.7034 5.1371,-17.5619 12.42383,-30.0664 7.27859,-12.4906 10.02163,-23.4137 9.36914,-32.7696 -0.65248,-9.3558 -4.70199,-17.153 -11.01758,-23.3926 -12.63116,-12.4789 -34.34655,-18.7285 -56.08203,-18.7285 z" /><path
       id="path146"
       style="opacity:1;fill:#1b10ef;fill-opacity:0.543147;stroke:none;stroke-width:1.03391;stroke-dasharray:none"
       d="m 2706.3145,978.33594 c -0.3844,0.0301 -0.8132,0.0279 -1.1915,0.0625 -9.753,0.8693 -17.4823,3.20884 -22.5703,7.65039 -4.5514,3.97304 -7.0072,9.61672 -6.9492,17.39847 0.057,7.7817 2.6351,17.7008 8.1641,30.1933 11.073,25.0228 4.8621,43.8212 -9.5625,56.3379 -14.4245,12.517 -37.0522,18.7715 -58.8145,18.7715 -21.7624,0 -42.6687,-6.2536 -53.6601,-18.7793 -5.4957,-6.2631 -8.5106,-14.0939 -7.9004,-23.4883 0.6102,-9.3941 4.843,-20.3498 13.8164,-32.8574 8.9642,-12.4933 13.6272,-22.2564 14.6992,-29.7852 1.0719,-7.5284 -1.4323,-12.81691 -6.8145,-16.41011 -10.7639,-7.1864 -33.092,-7.52321 -61.291,-4.97657 -56.3796,5.09202 -136.2184,21.66808 -194.2285,17.65428 -10.3315,49.9625 -0.7379,116.9064 -3.041,163.0332 -1.1522,23.0744 -5.2785,40.956 -16.4043,48.8906 -5.5629,3.9676 -12.8691,5.4347 -22.4062,3.8243 -9.537,-1.6109 -21.3049,-6.3032 -35.8086,-14.6602 -28.9851,-16.7051 -50.7059,-16.7266 -65.1778,-7.9141 -14.4718,8.8133 -21.7148,26.4788 -21.7148,45.2071 0,18.728 7.2476,38.5074 21.7285,51.5332 14.4809,13.0261 36.1992,19.3016 65.1797,11.0195 29.0093,-8.29 47.966,-6.2539 60.1758,3.043 12.2099,9.2973 17.6516,25.8444 19.6797,46.5351 4.0544,41.3638 -5.5444,99.3291 -2.2012,149.3008 57.9912,-3.6496 124.1552,4.8865 168.9941,1.8496 22.4282,-1.5193 39.5127,-5.9414 47.5684,-16.1953 4.0279,-5.1269 5.8034,-11.7097 4.873,-20.1445 -0.9305,-8.4344 -4.5721,-18.7163 -11.3965,-31.2109 -6.8346,-12.51 -9.1884,-23.4635 -8.1914,-32.8575 0.9971,-9.394 5.3461,-17.2208 11.9102,-23.4804 13.1281,-12.5201 35.1029,-18.7735 56.8652,-18.7735 21.7623,0 43.3155,6.2512 55.6035,18.7735 6.144,6.2608 9.9671,14.0938 10.3321,23.4882 0.365,9.3944 -2.7286,20.3484 -10.4043,32.8575 -7.6678,12.4933 -11.2588,22.7036 -11.459,31.0254 -0.2001,8.3214 2.9845,14.7508 8.8984,19.7168 11.8278,9.9321 34.5871,13.96 62.8946,15.2148 56.5894,2.5104 135.3411,-6.0263 193.3437,-0.2656 v -499.8145 c -57.9917,-0.86784 -123.0812,-17.43961 -168.1406,-21.31053 -5.6347,-0.48406 -10.9562,-0.76948 -15.9102,-0.80078 -3.3556,-0.0212 -6.4857,0.11493 -9.4882,0.34375 z" /><path
       id="path149"
       style="opacity:1;fill:#1b10ef;fill-opacity:0.543147;stroke:none;stroke-width:1.03391;stroke-dasharray:none"
       d="m 2042.627,880.7832 c -21.7354,0 -44.1811,6.24624 -58.2637,18.72852 -7.0412,6.24114 -11.9906,14.04378 -13.7285,23.40039 -1.7378,9.35661 -0.2647,20.27069 5.5644,32.75977 5.8374,12.50683 8.3438,22.86343 8.0215,31.37304 -0.3222,8.50924 -3.4761,15.17618 -8.9336,20.29298 -10.915,10.2334 -31.0315,14.2765 -56.2246,14.6601 -50.3622,0.7669 -121.0248,-13.1358 -179.0039,-21.8808 -2.1265,49.9922 -21.8293,106.3248 -26.5137,145.668 -1.1716,9.8404 -1.4074,18.615 -0.1933,25.9609 1.2142,7.3459 3.8757,13.2587 8.4843,17.3848 4.6085,4.1265 11.1686,6.4733 20.209,6.666 9.0404,0.1932 20.556,-1.7706 35.0508,-6.252 29.0162,-8.9676 50.7962,-3.1848 65.3145,9.5371 14.5182,12.7219 21.7793,32.3715 21.7793,51.1407 0,18.7691 -7.2593,36.6638 -21.7852,45.8496 -14.5258,9.1862 -36.31,9.657 -65.3223,-6.3848 -14.495,-8.0149 -25.7152,-12.304 -34.2734,-13.4727 -8.5581,-1.1682 -14.4488,0.772 -18.3184,5.2051 -3.8697,4.4326 -5.7221,11.3751 -6.164,20.2188 -0.4419,8.8438 0.5297,19.5887 2.291,31.6152 7.0403,48.0724 26.737,116.6472 19.4531,166.668 57.9752,-1.6945 129.3307,-11.4661 181.127,-8.3242 25.9111,1.5715 46.931,6.3729 58.9414,17.0527 6.0052,5.3397 9.7492,12.1537 10.7187,20.7578 0.9695,8.6037 -0.8373,18.998 -5.9297,31.5059 -10.1689,24.9729 -3.3125,43.6724 11.5157,56.1543 14.8282,12.4823 37.6434,18.7285 59.3789,18.7285 21.7355,0 42.3871,-6.2501 52.8906,-18.7207 5.2517,-6.2355 7.9739,-14.0241 7.0351,-23.3789 -0.9387,-9.3543 -5.5447,-20.279 -14.9492,-32.7696 -9.4135,-12.5046 -14.8643,-22.7238 -16.9687,-31.0547 -2.1044,-8.3308 -0.8572,-14.7785 3.1328,-19.7089 7.98,-9.8608 26.8644,-13.6479 51.7129,-14.5508 49.6752,-1.8055 123.2274,7.962 181.2012,4.3164 -3.3427,-49.9968 6.2535,-107.9666 2.2031,-149.2891 -2.0263,-20.6718 -7.4629,-37.1664 -19.6231,-46.4258 -12.1603,-9.2591 -31.0669,-11.3015 -60.0547,-3.0175 -29.0166,8.2923 -50.7968,2.0005 -65.3144,-11.0586 -14.5177,-13.059 -21.7715,-32.8766 -21.7715,-51.6446 0,-18.7684 7.2586,-36.4914 21.7852,-45.3379 14.5267,-8.8463 36.3102,-8.8007 65.3222,7.92 14.4948,8.352 26.2462,13.0323 35.7578,14.6386 9.5116,1.6063 16.7788,0.1394 22.3067,-3.8027 11.0557,-7.8848 15.1884,-25.7118 16.3398,-48.7715 2.3017,-46.0944 -7.2997,-113.0365 3.0371,-163.0429 -57.9688,-4.01335 -132.2025,9.8928 -183.3086,12.3203 -25.5661,1.214 -45.3485,-0.4308 -54.4316,-8.6758 -4.5415,-4.12238 -6.3971,-9.90654 -4.9395,-17.76759 1.4577,-7.86142 6.2184,-17.80559 14.8868,-30.31055 8.6595,-12.49172 12.6051,-23.41992 12.9863,-32.77539 0.3811,-9.35585 -2.8033,-17.13959 -8.4277,-23.37695 -11.2489,-12.47509 -32.2684,-18.72852 -54.0039,-18.72852 z" /><path
       id="path147"
       style="opacity:1;fill:#1b10ef;fill-opacity:0.543147;stroke:none;stroke-width:1.03391;stroke-dasharray:none"
       d="m 1466.2949,873.72656 c -21.7355,0 -43.7538,6.24806 -57,18.72656 -6.6231,6.23926 -11.0556,14.03982 -12.1679,23.39454 -1.1124,9.35434 1.0935,20.27182 7.7578,32.75976 6.6749,12.50647 9.6688,22.5107 9.5683,30.47266 -0.1005,7.96234 -3.3033,13.87827 -9.0117,18.18164 -11.4169,8.60678 -32.8222,10.79408 -59.5137,10.23048 -53.3598,-1.1265 -127.8634,-13.2715 -185.8339,-7.3965 2.1509,49.985 -9.073,107.033 -6.3555,147.4395 1.3596,20.2149 6.206,36.256 17.9394,45.1757 11.7334,8.9193 30.3751,10.7354 59.3633,2.459 29.0166,-8.2848 50.7968,-1.9909 65.3145,11.0723 14.5177,13.0628 21.7715,32.889 21.7715,51.6582 0,18.7691 -7.2585,36.4872 -21.7852,45.332 -14.5266,8.8445 -36.3025,8.8045 -65.3145,-7.9199 -28.9883,-16.7146 -48.5704,-18.5176 -61.4746,-10.291 -12.9042,8.2265 -19.1639,26.5066 -21.4648,50.0195 -4.6002,47.0115 6.629,114.8887 11.9961,164.8887 57.9677,4.8702 129.5881,-11.275 179.0293,-16.1563 12.365,-1.222 23.3416,-1.7357 32.375,-1.041 9.0335,0.6943 16.1267,2.5969 20.7148,6.2305 4.5882,3.6337 6.6639,9.0082 5.6524,16.5801 -1.0115,7.5719 -5.0975,17.3488 -12.8086,29.8515 -7.7026,12.4913 -10.8175,23.4137 -10.4824,32.7696 0.335,9.3555 4.1153,17.1459 10.2187,23.3847 12.2066,12.4778 33.7099,18.7285 55.4453,18.7285 21.7355,0 43.7055,-6.2485 56.8301,-18.7285 6.5623,-6.2404 10.9083,-14.0366 11.9297,-23.3926 1.0215,-9.3556 -1.2846,-20.2797 -8.0703,-32.7695 -6.7944,-12.5042 -9.9735,-22.3808 -10.0977,-30.1172 -0.124,-7.7359 2.8128,-13.3262 8.2285,-17.207 6.0255,-4.3176 15.3401,-6.3841 26.6934,-7.1484 0.3606,-0.024 0.7657,-0.02 1.1308,-0.041 8.8053,-0.5154 18.6513,-0.3677 29.7403,0.502 52.034,4.0808 125.334,20.2243 183.3066,18.5508 7.2918,-49.9649 -12.4021,-118.5586 -19.4472,-166.6641 -1.7621,-12.0314 -2.7319,-22.785 -2.2891,-31.6465 0.4427,-8.8611 2.2965,-15.8339 6.2012,-20.3066 3.9046,-4.4731 9.8579,-6.4283 18.4453,-5.2559 8.5874,1.1724 19.8207,5.467 34.3242,13.4864 28.9847,16.0267 50.6972,15.545 65.1699,6.3925 14.4727,-9.1525 21.7149,-26.9935 21.7149,-45.7226 0,-18.7291 -7.2404,-38.3349 -21.7207,-51.0235 -14.4802,-12.6887 -36.1988,-18.4642 -65.1797,-9.5078 -14.5038,4.4844 -26.0307,6.4447 -35.0938,6.252 -9.0632,-0.1935 -15.6613,-2.549 -20.3008,-6.7031 -4.6395,-4.1544 -7.3172,-10.1045 -8.5351,-17.4727 -1.218,-7.369 -0.9793,-16.1572 0.1933,-26.0059 4.6887,-39.3781 24.3827,-95.6959 26.5059,-145.6542 -57.9666,-8.72993 -128.3744,3.4108 -176.4863,5.2519 -24.0652,0.9207 -42.5581,-0.7259 -51.1426,-8.89648 -4.2922,-4.08529 -6.0893,-9.80534 -4.8535,-17.61914 1.2357,-7.8138 5.4993,-17.72589 13.3301,-30.23047 7.824,-12.48946 11.0408,-23.40543 10.7968,-32.75977 -0.2442,-9.35434 -3.9476,-17.14896 -9.9902,-23.38672 -12.0851,-12.47546 -33.5321,-18.72656 -55.2676,-18.72656 z" /><path
       id="path151"
       style="opacity:1;fill:#1b10ef;fill-opacity:0.543147;stroke:none;stroke-width:1.03391;stroke-dasharray:none"
       d="m 752.22852,994.51562 c -47.13206,-3.26938 -114.12592,5.87058 -172.11329,5.58788 -2.17574,49.9981 -21.83,111.5985 -26.45507,152.8653 -1.15693,10.321 -1.37377,19.368 -0.14454,26.6406 1.22925,7.2729 3.89768,12.7654 8.51368,15.9961 4.61599,3.2312 11.18801,4.2044 20.23632,2.414 9.04838,-1.7903 20.57087,-6.344 35.06641,-14.1718 29.01255,-15.6631 50.79688,-14.9127 65.32227,-5.5372 14.52542,9.3755 21.77734,27.3598 21.77734,46.129 0,18.7688 -7.25286,38.3284 -21.77148,50.8613 -14.51863,12.5326 -36.2984,18.028 -65.31446,8.6816 -14.49382,-4.6688 -25.75007,-6.3512 -34.36523,-5.5371 -8.61513,0.8145 -14.58952,4.1263 -18.55274,9.457 -7.92643,10.6609 -7.79694,29.4457 -4.42578,52.5372 6.7382,46.1539 26.39653,109.4748 20.12891,159.4882 57.96899,2.4992 132.59016,-14.597 185.89062,-19.8379 26.66297,-2.6214 47.99074,-2.2818 59.25586,4.9903 5.63259,3.6363 8.74261,9.0186 8.72071,16.6094 -0.0237,7.5908 -3.17313,17.3844 -10.02735,29.8886 -6.8455,12.4902 -9.21111,23.4118 -8.23437,32.7676 0.9767,9.3559 5.29187,17.1541 11.82422,23.3945 13.06477,12.48 35.00086,18.7266 56.73633,18.7266 21.73545,0 43.27254,-6.2488 55.53906,-18.7266 6.13327,-6.2392 9.94638,-14.0313 10.32617,-23.3867 0.37982,-9.3559 -2.67556,-20.2766 -10.31836,-32.7676 -7.65147,-12.503 -11.76935,-22.5314 -12.88086,-30.4941 -1.11156,-7.9631 0.78853,-13.8653 5.1582,-18.0859 4.83081,-4.6592 12.89,-7.1249 23,-8.2442 0.72517,-0.079 1.54464,-0.096 2.29297,-0.1601 7.69403,-0.67 16.28451,-0.7538 26.10742,-0.062 48.16482,3.3889 118.43882,20.4798 176.41012,25.3789 -5.368,-49.9876 -16.589,-117.8382 -11.9863,-164.875 2.3027,-23.5325 8.5672,-41.8639 21.5352,-50.1309 12.968,-8.267 32.6103,-6.4431 61.6191,10.2832 28.985,16.7089 50.698,16.7389 65.1699,7.9277 14.4719,-8.8116 21.7149,-26.4779 21.7149,-45.207 0,-18.7291 -7.2398,-38.5091 -21.7207,-51.539 -14.4809,-13.0299 -36.2051,-19.3192 -65.1856,-11.045 -29.0088,8.2828 -47.6995,6.4723 -59.4843,-2.4863 -11.7848,-8.9586 -16.6373,-25.0471 -17.9981,-45.2812 -2.7203,-40.4467 8.499,-97.4944 6.3477,-147.4532 -58.0028,5.8733 -135.9197,-3.27427 -190.21488,-1.40232 -27.1593,0.93619 -48.40759,4.64242 -58.27149,14.32032 -4.93192,4.8385 -7.02797,11.1641 -5.61719,19.4141 1.41074,8.2496 6.33638,18.4231 15.47071,30.916 9.14372,12.5076 13.52735,23.4552 14.26562,32.8496 0.73823,9.394 -2.16755,17.2253 -7.57812,23.4883 -10.82117,12.5265 -31.64979,18.7812 -53.41211,18.7812 -21.76232,0 -44.46777,-6.2489 -59.0625,-18.7656 -14.59469,-12.5167 -21.05819,-31.3151 -10.32617,-56.3379 5.35821,-12.4913 7.66535,-22.8362 7.38476,-31.373 -0.2807,-8.5368 -3.14731,-15.2743 -8.15625,-20.5528 -10.01783,-10.5574 -28.62099,-15.29817 -52.19726,-16.93358 z" /><path
       id="path150"
       style="opacity:1;fill:#1b10ef;fill-opacity:0.543147;stroke:none;stroke-width:1.03391;stroke-dasharray:none"
       d="m 172.07812,986.41797 c -47.10724,0.31509 -113.939134,13.2329 -171.9296825,13.68553 v 499.8184 c 58.0033175,-1.6788 135.5732825,14.3615 191.4394525,18.332 27.94569,1.9861 50.46543,0.9454 62.35938,-6.8125 5.94697,-3.8793 9.24201,-9.4284 9.26171,-17.1348 0.0197,-7.7069 -3.2494,-17.5806 -10.46093,-30.0742 -7.22068,-12.5095 -9.91786,-23.4614 -9.21094,-32.8554 0.70692,-9.3944 4.81626,-17.2221 11.1875,-23.4825 12.74249,-12.5208 34.52478,-18.7715 56.28711,-18.7715 21.76233,0 43.51382,6.2503 56.1875,18.7715 6.33685,6.2604 10.3995,14.0881 11.05469,23.4825 0.65516,9.394 -2.10109,20.3459 -9.39063,32.8554 -7.28141,12.4955 -11.25222,22.3451 -12.40234,30.0156 -1.15012,7.671 0.51502,13.155 4.50195,16.9629 3.98692,3.8079 10.31523,5.9455 18.49609,6.8594 8.18083,0.9135 18.21126,0.6091 29.60743,-0.4355 45.56648,-4.1767 112.91553,-20.2176 170.91211,-17.7129 6.26927,-49.9614 -13.37668,-113.2848 -20.11914,-159.4688 -3.37281,-23.1024 -3.52388,-41.9253 4.45312,-52.6543 3.9885,-5.3647 10.00969,-8.691 18.6543,-9.5078 8.64457,-0.8171 19.91717,0.8727 34.42187,5.5449 28.98103,9.3351 50.69979,3.847 65.17969,-8.6523 14.4799,-12.4993 21.7207,-32.0209 21.7207,-50.75 0,-18.7291 -7.2417,-36.6624 -21.71484,-46.0039 -14.47314,-9.3418 -36.19324,-10.105 -65.17774,5.543 -14.50302,7.8316 -26.03092,12.3926 -35.10156,14.1875 -9.07062,1.7949 -15.68611,0.8243 -20.34375,-2.4356 -4.65768,-3.2602 -7.34486,-8.7951 -8.57812,-16.0918 -1.2331,-7.2964 -1.0151,-16.3642 0.14257,-26.6933 4.62817,-41.2939 24.27201,-102.8755 26.44922,-152.836 -57.99951,-0.3108 -136.07847,-13.22285 -190.40039,-13.5742 -27.17263,-0.17499 -48.39885,2.80012 -58.17187,12.03125 -4.88651,4.61595 -6.9182,10.79055 -5.42383,18.94335 1.49436,8.1525 6.5263,18.2787 15.79297,30.7734 9.27785,12.5058 13.77424,23.4571 14.61328,32.8497 0.83905,9.3928 -1.98456,17.2275 -7.32812,23.4902 -10.68715,12.5249 -31.44275,18.7715 -53.20508,18.7715 -21.76233,0 -44.53497,-6.2513 -59.26368,-18.7657 -14.72868,-12.5144 -21.39531,-31.3028 -10.93164,-56.3222 5.22607,-12.4936 7.42883,-22.6287 7.06446,-30.791 -0.36436,-8.1623 -3.29594,-14.3569 -8.34766,-18.98636 -10.10344,-9.25986 -28.72188,-12.26421 -52.28516,-12.10547 z" /><path
       id="path145"
       style="opacity:1;fill:#1b10ef;fill-opacity:0.543147;stroke:none;stroke-width:1.03391;stroke-dasharray:none"
       d="m 2465.0684,486.89062 c -47.5078,0.87944 -101.5453,7.5652 -145.0372,13.22266 3.8462,50.01946 -15.8269,119.02138 -21.9843,167.06836 -1.5387,12.01777 -2.2356,22.72437 -1.5059,31.49024 0.7297,8.76585 2.8792,15.58188 7.0215,19.84179 4.1424,4.26067 10.2813,5.97742 19.0176,4.51172 8.7363,-1.46533 20.0635,-6.11733 34.5586,-14.58008 29.0119,-16.94174 50.7953,-17.1512 65.3222,-8.41406 14.527,8.73676 21.7852,26.40663 21.7852,45.17578 0,18.76915 -7.2619,38.64543 -21.7793,51.81445 -14.5175,13.16902 -36.2899,19.61952 -65.3066,11.54493 -14.4949,-4.032 -25.6228,-5.62258 -34.0313,-5.13086 -8.4085,0.49171 -14.0936,3.06204 -17.7324,7.35937 -3.6386,4.29732 -5.2395,10.33607 -5.4375,17.76172 -0.198,7.42564 1.0018,16.23692 2.9472,26.08789 7.7783,39.38358 27.4652,95.30531 17.1348,145.31641 57.9729,4.00516 137.798,-12.56184 194.1856,-17.6543 28.2067,-2.54778 50.5438,-2.24057 61.3828,4.99609 5.4194,3.61853 7.957,8.98631 6.8789,16.55857 -1.0781,7.5719 -5.7493,17.3563 -14.7207,29.8594 -8.9622,12.4921 -13.1794,23.4137 -13.7871,32.7695 -0.6077,9.3559 2.3844,17.1478 7.8574,23.3848 10.946,12.4739 31.8172,18.7207 53.5527,18.7207 21.7354,0 44.3352,-6.2451 58.7207,-18.7285 14.3855,-12.483 20.5725,-31.1828 9.5196,-56.1602 -5.534,-12.5038 -8.1198,-22.4448 -8.1778,-30.2597 -0.058,-7.81501 2.4242,-13.50841 7.0078,-17.5098 5.0925,-4.44544 12.9762,-6.65389 22.6621,-7.53906 0.3792,-0.0338 0.8062,-0.0331 1.1915,-0.0625 7.4905,-0.58691 15.878,-0.51834 25.4121,0.30078 45.0819,3.87281 110.1603,20.45089 168.1269,21.31836 v -499.8418 c -57.9845,-6.61453 -126.1633,-15.98871 -172.5801,-11.2207 -23.217,2.38526 -40.9865,8.31095 -49.3086,19.85742 -4.1611,5.77361 -5.9691,12.95542 -4.9238,21.82031 1.0453,8.86489 4.9542,19.41188 12.2168,31.90625 7.2715,12.5076 10.0106,23.46258 9.3418,32.85547 -0.6688,9.39289 -4.7517,17.22314 -11.0976,23.48242 -12.6918,12.51932 -34.4466,18.76367 -56.209,18.76367 -21.7623,2e-5 -43.5334,-6.24473 -56.2578,-18.76367 -6.3622,-6.25928 -10.461,-14.08953 -11.1543,-23.48242 -0.6933,-9.39251 2.017,-20.34787 9.2558,-32.85547 7.2292,-12.49286 10.5693,-23.0643 10.6543,-31.97265 0.085,-8.90836 -3.0793,-16.15433 -8.8633,-22.00391 -11.5681,-11.69879 -33.6446,-17.79911 -61.1601,-20.30078 -13.7527,-1.25029 -28.8633,-1.60173 -44.6992,-1.3086 z" /><path
       id="path141"
       style="opacity:1;fill:#1b10ef;fill-opacity:0.543147;stroke:none;stroke-width:1.03391;stroke-dasharray:none"
       d="m 1950.0859,481.5332 c -0.5529,-0.0544 -1.1711,-0.064 -1.7343,-0.11132 -3.376,-0.27953 -6.8602,-0.48572 -10.5821,-0.53321 -5.6595,-0.0722 -11.6967,0.1073 -18.0488,0.48242 -50.7907,2.99941 -121.6556,18.53783 -179.6484,18.75 11.0429,50.00919 -3.109,109.12356 -5.5411,149.7793 -0.6082,10.16958 -0.4842,19.18758 0.9493,26.61133 1.4336,7.42414 4.1732,13.25463 8.791,17.07422 4.6177,3.81998 11.116,5.63243 20.0937,5.0039 8.9778,-0.62816 20.4289,-3.70153 34.9239,-9.65429 29.0148,-11.91989 50.7991,-8.35418 65.3203,2.89257 14.5212,11.24637 21.7715,30.15972 21.7715,48.92774 0,18.76801 -7.255,37.39685 -21.7774,48.05664 -14.5225,10.65789 -36.3003,13.33599 -65.3144,0.24219 -14.4939,-6.54124 -26.2195,-9.70698 -35.6504,-10.05469 -9.431,-0.34583 -16.5666,2.12633 -21.8867,6.87305 -10.6402,9.49342 -14.0404,28.11371 -13.9434,51.50976 0.1938,46.7678 14.3485,112.57582 12.2559,162.58399 57.9869,8.7454 128.6533,22.6514 178.9921,21.8848 25.1791,-0.3832 45.2675,-4.4462 56.1309,-14.6309 5.4316,-5.0925 8.562,-11.70912 8.8828,-20.18359 0.3208,-8.47446 -2.1671,-18.80597 -7.998,-31.29883 -5.8392,-12.511 -7.3248,-23.4622 -5.5801,-32.85547 1.7447,-9.39327 6.7182,-17.22351 13.7793,-23.48242 14.1221,-12.51743 36.5932,-18.76562 58.3555,-18.76562 21.7624,0 42.8174,6.24844 54.1113,18.77343 5.6469,6.26231 8.8535,14.09388 8.4707,23.48828 -0.3828,9.3944 -4.3527,20.34908 -13.0235,32.85743 -8.6618,12.49513 -13.4065,22.42524 -14.8574,30.25 -1.4509,7.82476 0.3829,13.53083 4.8887,17.62109 9.0116,8.1796 28.7755,9.8581 54.332,8.6445 51.094,-2.4267 125.345,-16.33949 183.3477,-12.31833 10.3237,-49.9538 -9.3497,-105.86313 -17.1328,-145.27148 -1.9466,-9.85626 -3.1457,-18.67737 -2.9473,-26.12305 0.1985,-7.44568 1.7977,-13.51638 5.4668,-17.84961 3.6692,-4.33323 9.4065,-6.91888 17.8398,-7.41211 8.4333,-0.49323 19.5687,1.10478 34.0723,5.13867 28.9804,8.06477 50.6986,1.62014 65.1797,-11.51562 14.4811,-13.13614 21.7207,-32.97404 21.7207,-51.70313 0,-18.72909 -7.2353,-36.34141 -21.707,-45.04492 -14.4716,-8.7035 -36.1925,-8.51061 -65.1778,8.41602 -14.5034,8.46766 -25.8448,13.12351 -34.6093,14.59375 -8.7646,1.47024 -14.9593,-0.24918 -19.1387,-4.54688 -4.1793,-4.29771 -6.341,-11.15507 -7.0723,-19.93945 -0.7313,-8.78439 -0.035,-19.50352 1.5059,-31.52734 6.1601,-48.06835 25.833,-117.06734 21.9922,-167.03516 -58.0051,7.53045 -132.0524,-8.01546 -182.6895,-12.95117 -12.665,-1.23406 -23.8671,-1.80545 -32.9824,-1.1875 -9.1153,0.61833 -16.1427,2.43248 -20.4648,5.9414 -4.3216,3.50892 -5.9568,8.70586 -4.2891,16.17383 1.6677,7.46798 6.6527,17.19552 15.5703,29.69141 8.9263,12.50571 13.1107,23.45476 13.6856,32.84765 0.5748,9.39289 -2.4652,17.22831 -7.9844,23.49024 -11.0386,12.52385 -31.9701,18.77148 -53.7324,18.77148 -21.7623,0 -44.3648,-6.24851 -58.7422,-18.76367 -14.3775,-12.51516 -20.515,-31.31343 -9.3477,-56.33203 5.5755,-12.49324 7.8306,-22.45612 7.293,-30.31641 -0.5377,-7.86029 -3.86,-13.62016 -9.4707,-17.74023 -6.263,-4.59795 -15.3964,-7.13202 -26.6485,-8.22266 z" /><path
       id="path143"
       style="opacity:1;fill:#1b10ef;fill-opacity:0.543147;stroke:none;stroke-width:1.03391;stroke-dasharray:none"
       d="m 1461.2793,364.30859 c -21.7355,0 -43.2283,6.25266 -55.4023,18.72852 -6.087,6.23811 -9.8438,14.02457 -10.1543,23.37891 -0.3106,9.35396 2.833,20.27849 10.5683,32.76757 7.745,12.50684 11.5198,23.07218 11.9668,31.97071 0.447,8.89815 -2.4425,16.12312 -8.0137,21.91601 -11.1424,11.58615 -32.9943,17.46389 -60.3984,19.75391 -54.7815,4.57741 -131.7684,-5.20261 -189.7559,-12.69336 -0.1219,49.98948 -10.2167,109.34084 -5.8086,151.66406 2.2055,21.17557 8.0396,38.07359 20.5508,47.42188 12.5113,9.34792 31.7176,11.15964 60.7051,2.10351 29.0162,-9.06521 50.7962,-3.35711 65.3145,9.31641 14.5184,12.67315 21.7714,32.30702 21.7714,51.07617 0,18.76915 -7.2614,36.67916 -21.7871,45.91406 -14.5258,9.23453 -36.3001,9.77441 -65.3125,-6.16992 -28.9887,-15.93525 -48.4493,-17.72951 -61.2754,-9.92969 -12.8261,7.79981 -19.0527,25.22256 -21.5156,47.77539 -4.9238,45.08822 5.1821,110.64423 7.3555,160.64454 58.0008,-5.87649 132.5008,6.26443 185.8398,7.39063 26.6822,0.5631 48.0712,-1.632 59.4278,-10.19337 5.6782,-4.28069 8.8549,-10.15074 8.955,-18.07226 0.1,-7.92152 -2.8866,-17.89739 -9.5546,-30.39063 -6.6751,-12.50835 -8.8884,-23.46491 -7.7715,-32.85742 1.1169,-9.39251 5.5672,-17.22156 12.2109,-23.48047 13.2875,-12.51743 35.3373,-18.76563 57.0996,-18.76563 21.7623,2e-5 43.2386,6.25066 55.3672,18.77149 6.0644,6.26004 9.7881,14.08953 10.0332,23.48242 0.2452,9.39289 -2.9831,20.34239 -10.8183,32.84961 -7.8248,12.49513 -12.0783,22.39833 -13.3086,30.17774 -1.2303,7.77978 0.5529,13.42843 4.8105,17.48046 8.5151,8.10486 26.9791,9.77786 51.0352,8.85746 48.0894,-1.8398 118.5007,-13.985 176.5,-5.25394 2.0893,-49.97241 -12.0542,-115.77839 -12.2481,-162.57422 -0.097,-23.41155 3.2946,-42.07671 13.9942,-51.62305 5.3498,-4.77317 12.5205,-7.25592 21.9785,-6.9082 9.4581,0.34696 21.2025,3.52259 35.707,10.06836 28.983,13.08171 50.7017,10.39139 65.1777,-0.23437 14.4761,-10.62542 21.7149,-29.20174 21.7149,-47.92969 0,-18.72833 -7.2434,-37.59782 -21.7207,-48.81055 -14.4773,-11.21236 -36.1895,-14.77775 -65.1719,-2.87109 -14.5035,5.95578 -25.9636,9.03206 -34.9648,9.66211 -9.0013,0.63005 -15.5511,-1.18489 -20.2032,-5.03321 -4.652,-3.84831 -7.4022,-9.71681 -8.8398,-17.16211 -1.4377,-7.44567 -1.5658,-16.47476 -0.957,-26.65039 2.4338,-40.68921 16.5832,-99.79494 5.5429,-149.75586 -57.9766,0.20141 -125.9012,9.98835 -172.5996,7.23438 -23.357,-1.37764 -41.4056,-5.88592 -50.25,-16.33594 -4.4222,-5.22483 -6.5395,-11.93816 -5.8515,-20.46289 0.688,-8.52511 4.17,-18.86734 10.9316,-31.37305 6.7531,-12.48833 9.0381,-23.407 7.9922,-32.76171 -1.0459,-9.35472 -5.4155,-17.14552 -11.9942,-23.38477 -13.1572,-12.4785 -35.1375,-18.72852 -56.873,-18.72852 z" /><path
       id="path113"
       style="opacity:1;fill:#1b10ef;fill-opacity:0.543147;stroke:none;stroke-width:1.03391;stroke-dasharray:none"
       d="m 969.64062,474.59961 c -0.81077,0.10326 -1.68914,0.15415 -2.4746,0.27734 -9.61651,1.49273 -17.33597,4.47097 -22.57032,9.46875 -4.71373,4.50066 -7.44478,10.62477 -7.79297,18.75 -0.34818,8.12524 1.68878,18.2521 6.50196,30.7461 9.6368,25.02011 2.34656,43.80899 -12.79492,56.32226 -15.14148,12.51365 -38.12241,18.76563 -59.88477,18.76563 -21.76232,0 -42.31568,-6.24499 -52.58984,-18.77149 -5.13706,-6.26306 -7.70033,-14.09809 -6.55078,-23.49023 1.14958,-9.39251 6.0062,-20.34428 15.69726,-32.84961 9.68021,-12.49551 14.89378,-22.17257 16.37109,-29.55664 1.4773,-7.38406 -0.75977,-12.46454 -5.98046,-15.83399 -5.22069,-3.36983 -13.44249,-5.01015 -23.91993,-5.4414 -10.47744,-0.43086 -23.21075,0.34698 -37.45507,1.79492 -56.94628,5.78974 -138.05883,22.32188 -196.07032,15.35156 5.28232,49.98101 24.75965,119.03221 28.44336,166.98047 0.92146,11.99358 0.85535,22.66842 -0.67187,31.39649 -1.52725,8.72807 -4.51187,15.51282 -9.44141,19.71679 -4.9295,4.21494 -11.79377,5.81699 -21.04297,4.21485 -9.24923,-1.60177 -20.88886,-6.41846 -35.39258,-15.06641 -28.98544,-17.28606 -50.70848,-17.74903 -65.17968,-9.22656 -14.47117,8.52246 -21.70703,26.04158 -21.70703,44.76953 0,18.72834 7.2393,38.65976 21.7207,51.97656 14.4814,13.3168 36.19947,20.02892 65.17969,12.32813 29.00806,-7.70835 46.18002,-5.76888 55.54492,3.07031 9.36491,8.83919 10.89413,24.54316 8.66211,44.32031 -4.46164,39.53373 -23.94201,95.38196 -26.11914,145.34375 57.97224,0.28387 124.95188,-8.85917 172.11133,-5.58789 23.58982,1.63616 42.22554,6.36926 52.29101,16.97656 5.03271,5.3038 7.91753,12.0794 8.19922,20.6484 0.28179,8.5689 -2.03446,18.9345 -7.39844,31.4395 -10.7124,24.977 -4.26698,43.6786 10.28906,56.1621 14.55608,12.4834 37.23524,18.7344 58.97071,18.7344 21.73547,0 42.5292,-6.2549 53.30468,-18.7285 5.38779,-6.2366 8.2704,-14.0212 7.53516,-23.377 -0.73524,-9.3559 -5.09589,-20.2848 -14.22851,-32.7773 -9.142,-12.5034 -14.08271,-22.6924 -15.5,-30.9805 -1.41728,-8.2878 0.69725,-14.6777 5.66015,-19.5469 9.9258,-9.7387 31.19383,-13.42241 58.36328,-14.35935 54.318,-1.87242 132.2403,7.27435 190.2168,1.40234 -2.1734,-49.98425 -12.2756,-115.54156 -7.3477,-160.66601 2.465,-22.5725 8.6904,-40.04016 21.5801,-47.87891 12.8897,-7.83874 32.4095,-6.01811 61.418,9.92773 28.9846,15.92921 50.7049,15.37277 65.1777,6.17188 14.4728,-9.20127 21.7149,-27.05997 21.7149,-45.78906 0,-18.72909 -7.2425,-38.3191 -21.7227,-50.95899 -14.4801,-12.63988 -36.1968,-18.33941 -65.1777,-9.28515 -29.0096,9.06291 -48.2728,7.25837 -60.834,-2.12696 -12.5611,-9.38571 -18.4075,-26.33602 -20.6152,-47.53125 -4.4133,-42.37199 5.6914,-101.73885 5.8086,-151.71484 -57.9865,-7.48929 -121.7833,-24.0256 -166.26372,-26.19727 -5.56211,-0.27146 -10.82086,-0.3175 -15.72851,-0.0937 -2.93204,0.13368 -5.63609,0.44312 -8.30665,0.7793 z" /><path
       id="path144"
       style="opacity:1;fill:#1b10ef;fill-opacity:0.543147;stroke:none;stroke-width:1.03391;stroke-dasharray:none"
       d="m 282.11328,378.91797 c -21.73547,0 -43.45673,6.24957 -56.08789,18.72656 -6.31558,6.23887 -10.35923,14.03238 -11.01172,23.38672 -0.65248,9.35471 2.09056,20.27107 9.36914,32.75977 7.28715,12.50533 11.0626,22.47489 11.86133,30.37109 0.79873,7.89619 -1.39215,13.7235 -6.02344,17.9082 -9.26258,8.36901 -28.24766,10.19399 -52.67578,9.17578 C 128.70872,509.21052 58.117107,495.7757 0.1484375,500.11523 V 999.95508 C 58.117357,999.50144 124.9481,986.58309 172.07812,986.26953 c 23.57566,-0.15761 42.22685,2.83478 52.38477,12.14453 5.07897,4.65444 8.02477,10.89394 8.39063,19.08984 0.36586,8.1955 -1.8466,18.349 -7.07813,30.8555 -10.44427,24.9732 -3.79384,43.6728 10.89649,56.1543 14.69032,12.4819 37.43444,18.7285 59.16992,18.7285 21.73548,0 42.45636,-6.2494 53.09765,-18.7207 5.32065,-6.2359 8.12859,-14.0242 7.29297,-23.3789 -0.83563,-9.3543 -5.31921,-20.279 -14.58594,-32.7696 -9.27427,-12.5049 -14.31894,-22.6492 -15.82031,-30.8398 -1.50137,-8.191 0.55336,-14.4351 5.47266,-19.08203 9.8386,-9.29311 31.08232,-12.24417 58.26562,-12.07031 54.34304,0.35059 132.4289,13.26482 190.40821,13.57422 2.17568,-50.0008 21.66285,-105.8596 26.12109,-145.36328 2.23013,-19.76052 0.70196,-35.41056 -8.60547,-44.19532 -9.30747,-8.78515 -26.42894,-10.73626 -55.41797,-3.0332 -29.01683,7.711 -50.78951,0.98407 -65.30664,-12.36523 -14.51712,-13.34968 -21.77929,-33.31792 -21.77929,-52.08594 0,-18.76801 7.25974,-36.34077 21.7871,-44.89649 14.52736,-8.55571 36.30868,-8.07536 65.32032,9.22657 14.49481,8.64265 26.12162,13.44769 35.34375,15.04492 9.22208,1.59723 16.03707,-0.0133 20.92968,-4.18555 4.8926,-4.1726 7.86696,-10.92124 9.39063,-19.6289 1.52371,-8.70766 1.5908,-19.37298 0.66992,-31.35938 -3.68202,-47.92608 -23.17034,-116.99239 -28.45117,-167 -57.97096,-6.97921 -132.29786,6.4585 -184.9375,9.1543 -26.32859,1.34816 -47.23051,0.0158 -57.9707,-7.93555 -5.37009,-3.97531 -8.19414,-9.61229 -7.85743,-17.37695 0.33672,-7.76467 3.82051,-17.65835 11.03907,-30.16406 7.20972,-12.4887 9.89544,-23.40506 9.1914,-32.75977 -0.70404,-9.35434 -4.79642,-17.14785 -11.14648,-23.38672 -12.7001,-12.47699 -34.44421,-18.72656 -56.17969,-18.72656 z" /><path
       id="path142"
       style="opacity:1;fill:#1b10ef;fill-opacity:0.543147;stroke:none;stroke-width:1.03391;stroke-dasharray:none"
       d="M 2320.0117,0.15234375 C 2311.2509,50.144347 2295.6418,112.14043 2296.6992,153.79297 c 0.2645,10.4182 1.5726,19.56419 4.2871,26.92773 2.7145,7.36355 6.8329,12.9424 12.7246,16.24805 11.7835,6.61131 30.6938,4.12838 59.6836,-11.54492 29.0126,-15.68558 50.7948,-14.95327 65.3203,-5.58789 14.5254,9.36537 21.7793,27.3451 21.7793,46.11523 0,18.76991 -7.2528,38.3393 -21.7714,50.88281 -14.5186,12.54313 -36.2984,18.05249 -65.3145,8.72461 -28.9868,-9.31806 -47.2765,-6.81802 -58.3066,3.71289 -11.0301,10.53052 -14.8164,29.1222 -14.7344,52.01368 0.163,45.76204 15.7713,108.68518 19.6523,158.67773 57.9891,-7.54347 134.7264,-16.92306 189.7617,-11.91992 27.5292,2.5028 49.6322,8.59854 61.2481,20.3457 5.8079,5.87376 8.9903,13.16909 8.9043,22.11524 -0.086,8.94615 -3.4363,19.54513 -10.6738,32.05273 -7.2278,12.4887 -9.9248,23.40739 -9.2344,32.76172 0.6905,9.35434 4.7684,17.14629 11.1094,23.38476 12.682,12.47738 34.4247,18.72852 56.1601,18.72852 21.7355,0 43.46,-6.25115 56.1094,-18.72852 6.3246,-6.23847 10.3788,-14.03042 11.0449,-23.38476 0.6661,-9.35433 -2.0578,-20.27302 -9.3183,-32.76172 -7.2693,-12.50609 -11.1816,-23.07558 -12.2305,-31.9707 -1.0489,-8.89513 0.7677,-16.11923 4.9512,-21.92383 8.3669,-11.60883 26.175,-17.52963 49.4082,-19.91602 46.4453,-4.77137 114.615,4.60469 172.5937,11.21875 V 3.0761719 c 0,-1.6162407 -1.2639,-2.92379036 -2.8262,-2.92382815 z" /><path
       id="path140"
       style="opacity:1;fill:#1b10ef;fill-opacity:0.543147;stroke:none;stroke-width:1.03391;stroke-dasharray:none"
       d="M 1740.0605,0.15234375 C 1739.6888,50.155777 1720.3892,106.78366 1715.6719,146.875 c -2.3598,20.0545 -1.0699,35.95695 8.0273,44.83008 4.5486,4.43656 11.0555,7.12609 20.0508,7.69922 8.9954,0.57312 20.4782,-0.97011 34.9727,-4.9961 29.0167,-8.05963 50.7969,-1.6013 65.3144,11.57422 14.5175,13.17525 21.7715,33.05898 21.7715,51.82813 0,18.76915 -7.2582,36.43769 -21.7852,45.16992 -14.5269,8.73185 -36.3025,8.51219 -65.3144,-8.4375 -14.4946,-8.46993 -26.3193,-13.17185 -35.8574,-14.7207 -9.5381,-1.54885 -16.7896,0.0572 -22.1719,4.18554 -10.7647,8.25714 -14.0639,26.66997 -13.043,50.34571 2.0409,47.3284 21.3266,115.62154 32.4004,165.61132 57.9747,-0.20454 128.8541,-15.74066 179.6758,-18.74218 10.6119,-0.62674 20.0743,-0.52099 28.6387,0.19922 0.564,0.0467 1.1805,0.0577 1.7343,0.11132 11.18,1.09926 20.4666,3.49973 26.7286,8.09766 5.6407,4.14199 9.0007,9.95896 9.541,17.85742 0.5402,7.89885 -1.7328,17.87596 -7.3145,30.38281 -11.1471,24.97401 -5.0259,43.67316 9.3125,56.1543 14.3383,12.48115 36.913,18.72852 58.6485,18.72852 21.7355,0 42.6338,-6.24826 53.6269,-18.72071 5.4966,-6.23623 8.5217,-14.02456 7.9492,-23.3789 -0.5724,-9.35433 -4.751,-20.27736 -13.666,-32.76758 -8.9237,-12.5042 -13.9161,-22.23831 -15.5918,-29.74219 -1.6758,-7.50388 -0.025,-12.78595 4.3379,-16.32812 4.3629,-3.54218 11.4239,-5.35357 20.5527,-5.97266 9.1289,-0.61909 20.3332,-0.0453 33.002,1.18945 50.6549,4.93748 124.6971,20.47684 182.6641,12.94922 -3.8789,-49.97129 -19.497,-112.8934 -19.6602,-158.6914 -0.082,-22.90887 3.7048,-41.54414 14.7852,-52.12305 11.0804,-10.57891 29.4388,-13.06781 58.4492,-3.74219 28.981,9.31654 50.6998,3.80675 65.1797,-8.70312 14.4799,-12.50987 21.7207,-32.03579 21.7207,-50.76563 0,-18.73015 -7.2418,-36.65666 -21.7149,-45.98828 -14.4731,-9.33166 -36.1873,-10.07668 -65.1719,5.59375 -29.0072,15.68267 -47.9721,18.19774 -59.8261,11.54688 -5.927,-3.32543 -10.0639,-8.94291 -12.7871,-16.33008 -2.7232,-7.38717 -4.032,-16.54376 -4.2969,-26.97266 -1.0584,-41.69089 14.5529,-103.674281 23.3125,-153.65429625 z" /><path
       id="path139"
       style="opacity:1;fill:#1b10ef;fill-opacity:0.543147;stroke:none;stroke-width:1.03391;stroke-dasharray:none"
       d="m 1160.0801,0.15234375 c -5.8293,49.96487125 8.9671,113.36071625 10.75,159.59570625 0.892,23.13016 -1.4672,41.97175 -11.3321,52.6914 -4.9324,5.35975 -11.741,8.68318 -20.9375,9.48633 -9.1965,0.80277 -20.7821,-0.90725 -35.2871,-5.60937 -28.9811,-9.39516 -50.6978,-3.95163 -65.1777,8.51757 -14.4798,12.46905 -21.7285,31.97013 -21.7285,50.69922 0,18.72909 7.2416,36.67711 21.7148,46.04883 14.4732,9.37173 36.1933,10.18362 65.1778,-5.4043 14.5033,-7.80209 26.2748,-12.34837 35.7714,-14.1289 9.4969,-1.78092 16.7243,-0.79935 22.129,2.45898 5.4047,3.25796 8.9784,8.78735 11.1816,16.07617 2.2032,7.28883 3.0339,16.33964 2.9609,26.65625 -0.2918,41.25235 -15.0942,102.77362 -15.2129,152.74219 57.9897,7.49109 134.9816,17.27102 189.7422,12.69531 27.3904,-2.28889 49.2198,-8.17461 60.3125,-19.70898 5.5464,-5.76756 8.4158,-12.94591 7.9707,-21.80664 -0.4451,-8.86073 -4.2106,-19.40558 -11.9472,-31.89844 -7.7463,-12.50723 -10.8999,-23.45476 -10.5879,-32.84765 0.3119,-9.39326 4.0885,-17.22983 10.1972,-23.49024 12.2174,-12.52045 33.7397,-18.76562 55.502,-18.76562 21.7624,0 43.766,6.24781 56.9648,18.76562 6.5994,6.2589 10.9967,14.08991 12.0469,23.48242 1.0501,9.39252 -1.2439,20.34163 -8.0078,32.84961 -6.7553,12.49437 -10.2248,22.81951 -10.9102,31.3125 -0.6854,8.49298 1.4118,15.15074 5.8086,20.34571 8.7935,10.38993 26.8072,14.91451 50.1504,16.29101 46.6616,2.75229 114.5743,-7.03351 172.5586,-7.24023 -11.0727,-49.98029 -30.3545,-118.26368 -32.3965,-165.6211 -1.0217,-23.69388 2.2636,-42.16656 13.0997,-50.47851 5.418,-4.15485 12.7228,-5.75966 22.2871,-4.20703 9.5643,1.55301 21.3945,6.26734 35.8984,14.74218 28.9853,16.93457 50.7003,17.12866 65.1719,8.42969 14.4717,-8.69897 21.7148,-26.30802 21.7148,-45.03711 0,-18.72909 -7.2475,-38.56679 -21.7285,-51.70898 -14.4811,-13.14252 -36.1973,-19.59645 -65.1777,-11.54688 -14.504,4.02861 -25.9969,5.57269 -35.0157,4.99805 -9.0189,-0.57461 -15.5669,-3.27153 -20.1445,-7.73633 -9.1551,-8.9296 -10.4339,-24.88464 -8.0723,-44.95508 4.7207,-40.11914 24.0075,-96.732669 24.3829,-146.69335625 z" /><path
       id="path112"
       style="opacity:1;fill:#1b10ef;fill-opacity:0.543147;stroke:none;stroke-width:1.03391;stroke-dasharray:none"
       d="M 580.13281,0.15234375 C 588.34181,50.16397 571.98108,111.59497 568.05859,156.44922 c -1.96228,22.43919 -0.80613,40.71951 8.05664,51.3418 4.43138,5.31115 10.78692,8.71176 19.66602,9.77343 8.87909,1.06167 20.27973,-0.22264 34.77344,-4.29687 29.01665,-8.15717 50.79692,-1.7663 65.31445,11.36133 14.51753,13.1282 21.77148,32.984 21.77148,51.7539 10e-6,18.76991 -7.25834,36.46391 -21.78515,45.24414 -14.52685,8.78023 -36.30255,8.63096 -65.31445,-8.22461 -14.49517,-8.42155 -26.31934,-13.37418 -35.88672,-15.41211 -9.56742,-2.03792 -16.87575,-1.1596 -22.35547,2.09571 -5.47973,3.25531 -9.13974,8.88768 -11.39649,16.37304 -2.25679,7.48536 -3.10613,16.82257 -2.96875,27.46875 0.54866,42.56577 16.89867,106.06054 22.17774,156.05274 57.97247,6.97663 139.10039,-9.5614 196.07226,-15.35352 14.24768,-1.44983 26.98755,-2.22654 37.47657,-1.79492 10.48899,0.43163 18.72953,2.07517 23.99023,5.4707 5.2607,3.39553 7.523,8.56152 6.03711,15.98829 -1.48593,7.42716 -6.70344,17.11846 -16.39062,29.62304 -9.68,12.49097 -14.51912,23.41481 -15.66407,32.76953 -1.14495,9.35434 1.40174,17.14382 6.51563,23.37891 10.2278,12.4698 30.74109,18.71875 52.47656,18.71875 21.7355,0 44.68702,-6.25171 59.79102,-18.73437 15.10396,-12.48267 22.37023,-31.18219 12.75195,-56.1543 -4.81796,-12.50647 -6.85746,-22.64808 -6.50781,-30.80469 0.34953,-8.15661 3.09454,-14.32639 7.83593,-18.85351 5.23999,-5.00317 13.09895,-7.8563 22.66993,-9.35743 0.78652,-0.12209 1.66265,-0.17513 2.4746,-0.27734 7.18862,-0.91551 15.09177,-1.26909 24.04297,-0.83203 44.50311,2.17253 108.28811,18.70625 166.25591,26.19531 0.1253,-49.99251 14.9293,-111.50017 15.2207,-152.70703 0.073,-10.30754 -0.7648,-19.34594 -2.961,-26.61133 -2.1961,-7.26539 -5.7501,-12.75262 -11.1172,-15.98828 -5.3671,-3.23527 -12.5545,-4.22169 -22.0293,-2.44531 -9.4749,1.77675 -21.2333,6.31768 -35.7285,14.11523 -29.0126,15.60303 -50.7891,14.80966 -65.3144,5.4043 -14.5254,-9.40536 -21.7852,-27.41287 -21.7852,-46.18164 0,-18.76915 7.2607,-38.31373 21.7793,-50.81641 14.5187,-12.5025 36.2984,-17.95521 65.3145,-8.54883 14.4935,4.69871 26.0594,6.40988 35.2285,5.60938 9.1691,-0.80051 15.9366,-4.1091 20.8437,-9.44141 9.8143,-10.66467 12.1883,-29.46375 11.2969,-52.58008 -1.7818,-46.20543 -16.5904,-109.610273 -10.7578,-159.61913625 z" /><path
       id="path111"
       style="opacity:1;fill:#1b10ef;fill-opacity:0.543147;stroke:none;stroke-width:1.03391;stroke-dasharray:none"
       d="M 2.9726562,0.15234375 C 1.4102776,0.15238155 0.14841843,1.4599312 0.1484375,3.0761719 V 499.9668 c 57.9972715,-4.34054 128.5881625,9.09612 177.4023425,11.13086 24.4181,1.01783 43.38178,-0.82976 52.57813,-9.13868 4.59817,-4.15484 6.76777,-9.92291 5.97265,-17.7832 -0.79511,-7.86067 -4.5647,-17.80798 -11.8457,-30.30273 -7.28956,-12.5076 -10.0458,-23.46453 -9.39063,-32.85743 0.65516,-9.39251 4.72372,-17.22118 11.06055,-23.48046 12.67369,-12.51932 34.42518,-18.76563 56.1875,-18.76563 21.76233,0 43.53682,6.24631 56.2793,18.76563 6.37125,6.25928 10.48252,14.08795 11.18945,23.48046 0.70692,9.3929 -1.9844,20.34983 -9.20508,32.85743 -7.21183,12.49399 -10.68261,22.35818 -11.01757,30.08203 -0.33496,7.72384 2.45408,13.30669 7.79101,17.25781 10.67388,7.90147 31.55883,9.2466 57.87891,7.89844 52.61127,-2.69408 126.9288,-16.12348 184.92968,-9.15039 -5.28,-49.96855 -21.6267,-113.44496 -22.17578,-156.04102 -0.13733,-10.65563 0.71856,-20.00254 2.98242,-27.51172 2.26388,-7.50917 5.94274,-13.17671 11.46094,-16.45508 5.51816,-3.27836 12.86721,-4.1616 22.45703,-2.11914 9.58982,2.04284 21.42442,7.00946 35.92774,15.43555 28.98523,16.84007 50.70016,16.96377 65.17187,8.2168 14.47176,-8.74697 21.71485,-26.38111 21.71485,-45.11133 0,-18.72984 -7.24163,-38.54764 -21.72266,-51.64258 -14.481,-13.0946 -36.20507,-19.47122 -65.18555,-11.32422 -14.50482,4.07664 -25.91584,5.36782 -34.82226,4.30274 -8.90639,-1.06469 -15.30944,-4.4911 -19.76563,-9.83203 -8.91241,-10.68178 -10.04934,-28.99948 -8.08593,-51.45118 3.92506,-44.88367 20.2705,-106.313499 12.06445,-156.27538625 z" /></g></svg>
